<svg width="120" height="120" viewBox="0 0 120 120" fill="none" xmlns="http://www.w3.org/2000/svg">
<path d="M22.6415 0H20.3774V2.26415H22.6415V0Z" fill="black"/>
<path d="M43.0189 0H40.7547V2.26415H43.0189V0Z" fill="black"/>
<path d="M45.283 0H43.0189V2.26415H45.283V0Z" fill="black"/>
<path d="M47.5472 0H45.283V2.26415H47.5472V0Z" fill="black"/>
<path d="M49.8113 0H47.5472V2.26415H49.8113V0Z" fill="black"/>
<path d="M52.0755 0H49.8113V2.26415H52.0755V0Z" fill="black"/>
<path d="M56.6038 0H54.3396V2.26415H56.6038V0Z" fill="black"/>
<path d="M61.1321 0H58.8679V2.26415H61.1321V0Z" fill="black"/>
<path d="M63.3962 0H61.1321V2.26415H63.3962V0Z" fill="black"/>
<path d="M67.9245 0H65.6604V2.26415H67.9245V0Z" fill="black"/>
<path d="M70.1887 0H67.9245V2.26415H70.1887V0Z" fill="black"/>
<path d="M72.4528 0H70.1887V2.26415H72.4528V0Z" fill="black"/>
<path d="M76.9811 0H74.717V2.26415H76.9811V0Z" fill="black"/>
<path d="M79.2453 0H76.9811V2.26415H79.2453V0Z" fill="black"/>
<path d="M86.0377 0H83.7736V2.26415H86.0377V0Z" fill="black"/>
<path d="M88.3019 0H86.0377V2.26415H88.3019V0Z" fill="black"/>
<path d="M90.566 0H88.3019V2.26415H90.566V0Z" fill="black"/>
<path d="M97.3585 0H95.0943V2.26415H97.3585V0Z" fill="black"/>
<path d="M22.6415 2.26415H20.3774V4.5283H22.6415V2.26415Z" fill="black"/>
<path d="M27.1698 2.26415H24.9057V4.5283H27.1698V2.26415Z" fill="black"/>
<path d="M29.434 2.26415H27.1698V4.5283H29.434V2.26415Z" fill="black"/>
<path d="M33.9623 2.26415H31.6981V4.5283H33.9623V2.26415Z" fill="black"/>
<path d="M36.2264 2.26415H33.9623V4.5283H36.2264V2.26415Z" fill="black"/>
<path d="M40.7547 2.26415H38.4906V4.5283H40.7547V2.26415Z" fill="black"/>
<path d="M58.8679 2.26415H56.6038V4.5283H58.8679V2.26415Z" fill="black"/>
<path d="M63.3962 2.26415H61.1321V4.5283H63.3962V2.26415Z" fill="black"/>
<path d="M65.6604 2.26415H63.3962V4.5283H65.6604V2.26415Z" fill="black"/>
<path d="M67.9245 2.26415H65.6604V4.5283H67.9245V2.26415Z" fill="black"/>
<path d="M70.1887 2.26415H67.9245V4.5283H70.1887V2.26415Z" fill="black"/>
<path d="M83.7736 2.26415H81.5094V4.5283H83.7736V2.26415Z" fill="black"/>
<path d="M88.3019 2.26415H86.0377V4.5283H88.3019V2.26415Z" fill="black"/>
<path d="M90.566 2.26415H88.3019V4.5283H90.566V2.26415Z" fill="black"/>
<path d="M92.8302 2.26415H90.566V4.5283H92.8302V2.26415Z" fill="black"/>
<path d="M95.0943 2.26415H92.8302V4.5283H95.0943V2.26415Z" fill="black"/>
<path d="M97.3585 2.26415H95.0943V4.5283H97.3585V2.26415Z" fill="black"/>
<path d="M99.6226 2.26415H97.3585V4.5283H99.6226V2.26415Z" fill="black"/>
<path d="M22.6415 4.5283H20.3774V6.79245H22.6415V4.5283Z" fill="black"/>
<path d="M27.1698 4.5283H24.9057V6.79245H27.1698V4.5283Z" fill="black"/>
<path d="M36.2264 4.5283H33.9623V6.79245H36.2264V4.5283Z" fill="black"/>
<path d="M43.0189 4.5283H40.7547V6.79245H43.0189V4.5283Z" fill="black"/>
<path d="M45.283 4.5283H43.0189V6.79245H45.283V4.5283Z" fill="black"/>
<path d="M54.3396 4.5283H52.0755V6.79245H54.3396V4.5283Z" fill="black"/>
<path d="M56.6038 4.5283H54.3396V6.79245H56.6038V4.5283Z" fill="black"/>
<path d="M74.717 4.5283H72.4528V6.79245H74.717V4.5283Z" fill="black"/>
<path d="M81.5094 4.5283H79.2453V6.79245H81.5094V4.5283Z" fill="black"/>
<path d="M95.0943 4.5283H92.8302V6.79245H95.0943V4.5283Z" fill="black"/>
<path d="M99.6226 4.5283H97.3585V6.79245H99.6226V4.5283Z" fill="black"/>
<path d="M24.9057 6.79245H22.6415V9.0566H24.9057V6.79245Z" fill="black"/>
<path d="M29.434 6.79245H27.1698V9.0566H29.434V6.79245Z" fill="black"/>
<path d="M36.2264 6.79245H33.9623V9.0566H36.2264V6.79245Z" fill="black"/>
<path d="M40.7547 6.79245H38.4906V9.0566H40.7547V6.79245Z" fill="black"/>
<path d="M45.283 6.79245H43.0189V9.0566H45.283V6.79245Z" fill="black"/>
<path d="M56.6038 6.79245H54.3396V9.0566H56.6038V6.79245Z" fill="black"/>
<path d="M67.9245 6.79245H65.6604V9.0566H67.9245V6.79245Z" fill="black"/>
<path d="M70.1887 6.79245H67.9245V9.0566H70.1887V6.79245Z" fill="black"/>
<path d="M76.9811 6.79245H74.717V9.0566H76.9811V6.79245Z" fill="black"/>
<path d="M86.0377 6.79245H83.7736V9.0566H86.0377V6.79245Z" fill="black"/>
<path d="M90.566 6.79245H88.3019V9.0566H90.566V6.79245Z" fill="black"/>
<path d="M97.3585 6.79245H95.0943V9.0566H97.3585V6.79245Z" fill="black"/>
<path d="M101.887 6.79245H99.6226V9.0566H101.887V6.79245Z" fill="black"/>
<path d="M24.9057 9.0566H22.6415V11.3208H24.9057V9.0566Z" fill="black"/>
<path d="M29.434 9.0566H27.1698V11.3208H29.434V9.0566Z" fill="black"/>
<path d="M31.6981 9.0566H29.434V11.3208H31.6981V9.0566Z" fill="black"/>
<path d="M33.9623 9.0566H31.6981V11.3208H33.9623V9.0566Z" fill="black"/>
<path d="M38.4906 9.0566H36.2264V11.3208H38.4906V9.0566Z" fill="black"/>
<path d="M40.7547 9.0566H38.4906V11.3208H40.7547V9.0566Z" fill="black"/>
<path d="M43.0189 9.0566H40.7547V11.3208H43.0189V9.0566Z" fill="black"/>
<path d="M52.0755 9.0566H49.8113V11.3208H52.0755V9.0566Z" fill="black"/>
<path d="M56.6038 9.0566H54.3396V11.3208H56.6038V9.0566Z" fill="black"/>
<path d="M58.8679 9.0566H56.6038V11.3208H58.8679V9.0566Z" fill="black"/>
<path d="M61.1321 9.0566H58.8679V11.3208H61.1321V9.0566Z" fill="black"/>
<path d="M63.3962 9.0566H61.1321V11.3208H63.3962V9.0566Z" fill="black"/>
<path d="M65.6604 9.0566H63.3962V11.3208H65.6604V9.0566Z" fill="black"/>
<path d="M67.9245 9.0566H65.6604V11.3208H67.9245V9.0566Z" fill="black"/>
<path d="M70.1887 9.0566H67.9245V11.3208H70.1887V9.0566Z" fill="black"/>
<path d="M72.4528 9.0566H70.1887V11.3208H72.4528V9.0566Z" fill="black"/>
<path d="M76.9811 9.0566H74.717V11.3208H76.9811V9.0566Z" fill="black"/>
<path d="M81.5094 9.0566H79.2453V11.3208H81.5094V9.0566Z" fill="black"/>
<path d="M83.7736 9.0566H81.5094V11.3208H83.7736V9.0566Z" fill="black"/>
<path d="M88.3019 9.0566H86.0377V11.3208H88.3019V9.0566Z" fill="black"/>
<path d="M90.566 9.0566H88.3019V11.3208H90.566V9.0566Z" fill="black"/>
<path d="M92.8302 9.0566H90.566V11.3208H92.8302V9.0566Z" fill="black"/>
<path d="M95.0943 9.0566H92.8302V11.3208H95.0943V9.0566Z" fill="black"/>
<path d="M97.3585 9.0566H95.0943V11.3208H97.3585V9.0566Z" fill="black"/>
<path d="M20.3774 11.3208H18.1132V13.5849H20.3774V11.3208Z" fill="black"/>
<path d="M22.6415 11.3208H20.3774V13.5849H22.6415V11.3208Z" fill="black"/>
<path d="M27.1698 11.3208H24.9057V13.5849H27.1698V11.3208Z" fill="black"/>
<path d="M33.9623 11.3208H31.6981V13.5849H33.9623V11.3208Z" fill="black"/>
<path d="M45.283 11.3208H43.0189V13.5849H45.283V11.3208Z" fill="black"/>
<path d="M47.5472 11.3208H45.283V13.5849H47.5472V11.3208Z" fill="black"/>
<path d="M49.8113 11.3208H47.5472V13.5849H49.8113V11.3208Z" fill="black"/>
<path d="M56.6038 11.3208H54.3396V13.5849H56.6038V11.3208Z" fill="black"/>
<path d="M65.6604 11.3208H63.3962V13.5849H65.6604V11.3208Z" fill="black"/>
<path d="M70.1887 11.3208H67.9245V13.5849H70.1887V11.3208Z" fill="black"/>
<path d="M76.9811 11.3208H74.717V13.5849H76.9811V11.3208Z" fill="black"/>
<path d="M79.2453 11.3208H76.9811V13.5849H79.2453V11.3208Z" fill="black"/>
<path d="M83.7736 11.3208H81.5094V13.5849H83.7736V11.3208Z" fill="black"/>
<path d="M97.3585 11.3208H95.0943V13.5849H97.3585V11.3208Z" fill="black"/>
<path d="M20.3774 13.5849H18.1132V15.8491H20.3774V13.5849Z" fill="black"/>
<path d="M24.9057 13.5849H22.6415V15.8491H24.9057V13.5849Z" fill="black"/>
<path d="M29.434 13.5849H27.1698V15.8491H29.434V13.5849Z" fill="black"/>
<path d="M33.9623 13.5849H31.6981V15.8491H33.9623V13.5849Z" fill="black"/>
<path d="M38.4906 13.5849H36.2264V15.8491H38.4906V13.5849Z" fill="black"/>
<path d="M43.0189 13.5849H40.7547V15.8491H43.0189V13.5849Z" fill="black"/>
<path d="M47.5472 13.5849H45.283V15.8491H47.5472V13.5849Z" fill="black"/>
<path d="M52.0755 13.5849H49.8113V15.8491H52.0755V13.5849Z" fill="black"/>
<path d="M56.6038 13.5849H54.3396V15.8491H56.6038V13.5849Z" fill="black"/>
<path d="M61.1321 13.5849H58.8679V15.8491H61.1321V13.5849Z" fill="black"/>
<path d="M65.6604 13.5849H63.3962V15.8491H65.6604V13.5849Z" fill="black"/>
<path d="M70.1887 13.5849H67.9245V15.8491H70.1887V13.5849Z" fill="black"/>
<path d="M74.717 13.5849H72.4528V15.8491H74.717V13.5849Z" fill="black"/>
<path d="M79.2453 13.5849H76.9811V15.8491H79.2453V13.5849Z" fill="black"/>
<path d="M83.7736 13.5849H81.5094V15.8491H83.7736V13.5849Z" fill="black"/>
<path d="M88.3019 13.5849H86.0377V15.8491H88.3019V13.5849Z" fill="black"/>
<path d="M92.8302 13.5849H90.566V15.8491H92.8302V13.5849Z" fill="black"/>
<path d="M97.3585 13.5849H95.0943V15.8491H97.3585V13.5849Z" fill="black"/>
<path d="M101.887 13.5849H99.6226V15.8491H101.887V13.5849Z" fill="black"/>
<path d="M22.6415 15.8491H20.3774V18.1132H22.6415V15.8491Z" fill="black"/>
<path d="M27.1698 15.8491H24.9057V18.1132H27.1698V15.8491Z" fill="black"/>
<path d="M33.9623 15.8491H31.6981V18.1132H33.9623V15.8491Z" fill="black"/>
<path d="M38.4906 15.8491H36.2264V18.1132H38.4906V15.8491Z" fill="black"/>
<path d="M43.0189 15.8491H40.7547V18.1132H43.0189V15.8491Z" fill="black"/>
<path d="M45.283 15.8491H43.0189V18.1132H45.283V15.8491Z" fill="black"/>
<path d="M47.5472 15.8491H45.283V18.1132H47.5472V15.8491Z" fill="black"/>
<path d="M49.8113 15.8491H47.5472V18.1132H49.8113V15.8491Z" fill="black"/>
<path d="M56.6038 15.8491H54.3396V18.1132H56.6038V15.8491Z" fill="black"/>
<path d="M65.6604 15.8491H63.3962V18.1132H65.6604V15.8491Z" fill="black"/>
<path d="M70.1887 15.8491H67.9245V18.1132H70.1887V15.8491Z" fill="black"/>
<path d="M72.4528 15.8491H70.1887V18.1132H72.4528V15.8491Z" fill="black"/>
<path d="M74.717 15.8491H72.4528V18.1132H74.717V15.8491Z" fill="black"/>
<path d="M79.2453 15.8491H76.9811V18.1132H79.2453V15.8491Z" fill="black"/>
<path d="M83.7736 15.8491H81.5094V18.1132H83.7736V15.8491Z" fill="black"/>
<path d="M86.0377 15.8491H83.7736V18.1132H86.0377V15.8491Z" fill="black"/>
<path d="M88.3019 15.8491H86.0377V18.1132H88.3019V15.8491Z" fill="black"/>
<path d="M101.887 15.8491H99.6226V18.1132H101.887V15.8491Z" fill="black"/>
<path d="M2.26415 18.1132H0V20.3774H2.26415V18.1132Z" fill="black"/>
<path d="M9.0566 18.1132H6.79245V20.3774H9.0566V18.1132Z" fill="black"/>
<path d="M13.5849 18.1132H11.3208V20.3774H13.5849V18.1132Z" fill="black"/>
<path d="M15.8491 18.1132H13.5849V20.3774H15.8491V18.1132Z" fill="black"/>
<path d="M20.3774 18.1132H18.1132V20.3774H20.3774V18.1132Z" fill="black"/>
<path d="M24.9057 18.1132H22.6415V20.3774H24.9057V18.1132Z" fill="black"/>
<path d="M27.1698 18.1132H24.9057V20.3774H27.1698V18.1132Z" fill="black"/>
<path d="M31.6981 18.1132H29.434V20.3774H31.6981V18.1132Z" fill="black"/>
<path d="M40.7547 18.1132H38.4906V20.3774H40.7547V18.1132Z" fill="black"/>
<path d="M43.0189 18.1132H40.7547V20.3774H43.0189V18.1132Z" fill="black"/>
<path d="M45.283 18.1132H43.0189V20.3774H45.283V18.1132Z" fill="black"/>
<path d="M49.8113 18.1132H47.5472V20.3774H49.8113V18.1132Z" fill="black"/>
<path d="M52.0755 18.1132H49.8113V20.3774H52.0755V18.1132Z" fill="black"/>
<path d="M56.6038 18.1132H54.3396V20.3774H56.6038V18.1132Z" fill="black"/>
<path d="M58.8679 18.1132H56.6038V20.3774H58.8679V18.1132Z" fill="black"/>
<path d="M61.1321 18.1132H58.8679V20.3774H61.1321V18.1132Z" fill="black"/>
<path d="M63.3962 18.1132H61.1321V20.3774H63.3962V18.1132Z" fill="black"/>
<path d="M65.6604 18.1132H63.3962V20.3774H65.6604V18.1132Z" fill="black"/>
<path d="M70.1887 18.1132H67.9245V20.3774H70.1887V18.1132Z" fill="black"/>
<path d="M72.4528 18.1132H70.1887V20.3774H72.4528V18.1132Z" fill="black"/>
<path d="M79.2453 18.1132H76.9811V20.3774H79.2453V18.1132Z" fill="black"/>
<path d="M81.5094 18.1132H79.2453V20.3774H81.5094V18.1132Z" fill="black"/>
<path d="M83.7736 18.1132H81.5094V20.3774H83.7736V18.1132Z" fill="black"/>
<path d="M88.3019 18.1132H86.0377V20.3774H88.3019V18.1132Z" fill="black"/>
<path d="M90.566 18.1132H88.3019V20.3774H90.566V18.1132Z" fill="black"/>
<path d="M92.8302 18.1132H90.566V20.3774H92.8302V18.1132Z" fill="black"/>
<path d="M97.3585 18.1132H95.0943V20.3774H97.3585V18.1132Z" fill="black"/>
<path d="M99.6226 18.1132H97.3585V20.3774H99.6226V18.1132Z" fill="black"/>
<path d="M101.887 18.1132H99.6226V20.3774H101.887V18.1132Z" fill="black"/>
<path d="M104.151 18.1132H101.887V20.3774H104.151V18.1132Z" fill="black"/>
<path d="M108.679 18.1132H106.415V20.3774H108.679V18.1132Z" fill="black"/>
<path d="M2.26415 20.3774H0V22.6415H2.26415V20.3774Z" fill="black"/>
<path d="M4.5283 20.3774H2.26415V22.6415H4.5283V20.3774Z" fill="black"/>
<path d="M9.0566 20.3774H6.79245V22.6415H9.0566V20.3774Z" fill="black"/>
<path d="M18.1132 20.3774H15.8491V22.6415H18.1132V20.3774Z" fill="black"/>
<path d="M22.6415 20.3774H20.3774V22.6415H22.6415V20.3774Z" fill="black"/>
<path d="M24.9057 20.3774H22.6415V22.6415H24.9057V20.3774Z" fill="black"/>
<path d="M29.434 20.3774H27.1698V22.6415H29.434V20.3774Z" fill="black"/>
<path d="M31.6981 20.3774H29.434V22.6415H31.6981V20.3774Z" fill="black"/>
<path d="M33.9623 20.3774H31.6981V22.6415H33.9623V20.3774Z" fill="black"/>
<path d="M36.2264 20.3774H33.9623V22.6415H36.2264V20.3774Z" fill="black"/>
<path d="M40.7547 20.3774H38.4906V22.6415H40.7547V20.3774Z" fill="black"/>
<path d="M45.283 20.3774H43.0189V22.6415H45.283V20.3774Z" fill="black"/>
<path d="M49.8113 20.3774H47.5472V22.6415H49.8113V20.3774Z" fill="black"/>
<path d="M52.0755 20.3774H49.8113V22.6415H52.0755V20.3774Z" fill="black"/>
<path d="M54.3396 20.3774H52.0755V22.6415H54.3396V20.3774Z" fill="black"/>
<path d="M61.1321 20.3774H58.8679V22.6415H61.1321V20.3774Z" fill="black"/>
<path d="M63.3962 20.3774H61.1321V22.6415H63.3962V20.3774Z" fill="black"/>
<path d="M65.6604 20.3774H63.3962V22.6415H65.6604V20.3774Z" fill="black"/>
<path d="M67.9245 20.3774H65.6604V22.6415H67.9245V20.3774Z" fill="black"/>
<path d="M72.4528 20.3774H70.1887V22.6415H72.4528V20.3774Z" fill="black"/>
<path d="M74.717 20.3774H72.4528V22.6415H74.717V20.3774Z" fill="black"/>
<path d="M92.8302 20.3774H90.566V22.6415H92.8302V20.3774Z" fill="black"/>
<path d="M104.151 20.3774H101.887V22.6415H104.151V20.3774Z" fill="black"/>
<path d="M110.943 20.3774H108.679V22.6415H110.943V20.3774Z" fill="black"/>
<path d="M120 20.3774H117.736V22.6415H120V20.3774Z" fill="black"/>
<path d="M2.26415 22.6415H0V24.9057H2.26415V22.6415Z" fill="black"/>
<path d="M6.79245 22.6415H4.5283V24.9057H6.79245V22.6415Z" fill="black"/>
<path d="M9.0566 22.6415H6.79245V24.9057H9.0566V22.6415Z" fill="black"/>
<path d="M15.8491 22.6415H13.5849V24.9057H15.8491V22.6415Z" fill="black"/>
<path d="M20.3774 22.6415H18.1132V24.9057H20.3774V22.6415Z" fill="black"/>
<path d="M22.6415 22.6415H20.3774V24.9057H22.6415V22.6415Z" fill="black"/>
<path d="M27.1698 22.6415H24.9057V24.9057H27.1698V22.6415Z" fill="black"/>
<path d="M36.2264 22.6415H33.9623V24.9057H36.2264V22.6415Z" fill="black"/>
<path d="M40.7547 22.6415H38.4906V24.9057H40.7547V22.6415Z" fill="black"/>
<path d="M43.0189 22.6415H40.7547V24.9057H43.0189V22.6415Z" fill="black"/>
<path d="M49.8113 22.6415H47.5472V24.9057H49.8113V22.6415Z" fill="black"/>
<path d="M52.0755 22.6415H49.8113V24.9057H52.0755V22.6415Z" fill="black"/>
<path d="M63.3962 22.6415H61.1321V24.9057H63.3962V22.6415Z" fill="black"/>
<path d="M67.9245 22.6415H65.6604V24.9057H67.9245V22.6415Z" fill="black"/>
<path d="M74.717 22.6415H72.4528V24.9057H74.717V22.6415Z" fill="black"/>
<path d="M76.9811 22.6415H74.717V24.9057H76.9811V22.6415Z" fill="black"/>
<path d="M79.2453 22.6415H76.9811V24.9057H79.2453V22.6415Z" fill="black"/>
<path d="M81.5094 22.6415H79.2453V24.9057H81.5094V22.6415Z" fill="black"/>
<path d="M86.0377 22.6415H83.7736V24.9057H86.0377V22.6415Z" fill="black"/>
<path d="M90.566 22.6415H88.3019V24.9057H90.566V22.6415Z" fill="black"/>
<path d="M92.8302 22.6415H90.566V24.9057H92.8302V22.6415Z" fill="black"/>
<path d="M104.151 22.6415H101.887V24.9057H104.151V22.6415Z" fill="black"/>
<path d="M106.415 22.6415H104.151V24.9057H106.415V22.6415Z" fill="black"/>
<path d="M110.943 22.6415H108.679V24.9057H110.943V22.6415Z" fill="black"/>
<path d="M113.208 22.6415H110.943V24.9057H113.208V22.6415Z" fill="black"/>
<path d="M115.472 22.6415H113.208V24.9057H115.472V22.6415Z" fill="black"/>
<path d="M117.736 22.6415H115.472V24.9057H117.736V22.6415Z" fill="black"/>
<path d="M4.5283 24.9057H2.26415V27.1698H4.5283V24.9057Z" fill="black"/>
<path d="M9.0566 24.9057H6.79245V27.1698H9.0566V24.9057Z" fill="black"/>
<path d="M11.3208 24.9057H9.0566V27.1698H11.3208V24.9057Z" fill="black"/>
<path d="M13.5849 24.9057H11.3208V27.1698H13.5849V24.9057Z" fill="black"/>
<path d="M18.1132 24.9057H15.8491V27.1698H18.1132V24.9057Z" fill="black"/>
<path d="M20.3774 24.9057H18.1132V27.1698H20.3774V24.9057Z" fill="black"/>
<path d="M22.6415 24.9057H20.3774V27.1698H22.6415V24.9057Z" fill="black"/>
<path d="M29.434 24.9057H27.1698V27.1698H29.434V24.9057Z" fill="black"/>
<path d="M31.6981 24.9057H29.434V27.1698H31.6981V24.9057Z" fill="black"/>
<path d="M36.2264 24.9057H33.9623V27.1698H36.2264V24.9057Z" fill="black"/>
<path d="M38.4906 24.9057H36.2264V27.1698H38.4906V24.9057Z" fill="black"/>
<path d="M40.7547 24.9057H38.4906V27.1698H40.7547V24.9057Z" fill="black"/>
<path d="M45.283 24.9057H43.0189V27.1698H45.283V24.9057Z" fill="black"/>
<path d="M47.5472 24.9057H45.283V27.1698H47.5472V24.9057Z" fill="black"/>
<path d="M54.3396 24.9057H52.0755V27.1698H54.3396V24.9057Z" fill="black"/>
<path d="M58.8679 24.9057H56.6038V27.1698H58.8679V24.9057Z" fill="black"/>
<path d="M61.1321 24.9057H58.8679V27.1698H61.1321V24.9057Z" fill="black"/>
<path d="M63.3962 24.9057H61.1321V27.1698H63.3962V24.9057Z" fill="black"/>
<path d="M76.9811 24.9057H74.717V27.1698H76.9811V24.9057Z" fill="black"/>
<path d="M83.7736 24.9057H81.5094V27.1698H83.7736V24.9057Z" fill="black"/>
<path d="M88.3019 24.9057H86.0377V27.1698H88.3019V24.9057Z" fill="black"/>
<path d="M90.566 24.9057H88.3019V27.1698H90.566V24.9057Z" fill="black"/>
<path d="M92.8302 24.9057H90.566V27.1698H92.8302V24.9057Z" fill="black"/>
<path d="M97.3585 24.9057H95.0943V27.1698H97.3585V24.9057Z" fill="black"/>
<path d="M104.151 24.9057H101.887V27.1698H104.151V24.9057Z" fill="black"/>
<path d="M106.415 24.9057H104.151V27.1698H106.415V24.9057Z" fill="black"/>
<path d="M110.943 24.9057H108.679V27.1698H110.943V24.9057Z" fill="black"/>
<path d="M115.472 24.9057H113.208V27.1698H115.472V24.9057Z" fill="black"/>
<path d="M117.736 24.9057H115.472V27.1698H117.736V24.9057Z" fill="black"/>
<path d="M4.5283 27.1698H2.26415V29.434H4.5283V27.1698Z" fill="black"/>
<path d="M9.0566 27.1698H6.79245V29.434H9.0566V27.1698Z" fill="black"/>
<path d="M11.3208 27.1698H9.0566V29.434H11.3208V27.1698Z" fill="black"/>
<path d="M15.8491 27.1698H13.5849V29.434H15.8491V27.1698Z" fill="black"/>
<path d="M18.1132 27.1698H15.8491V29.434H18.1132V27.1698Z" fill="black"/>
<path d="M22.6415 27.1698H20.3774V29.434H22.6415V27.1698Z" fill="black"/>
<path d="M24.9057 27.1698H22.6415V29.434H24.9057V27.1698Z" fill="black"/>
<path d="M27.1698 27.1698H24.9057V29.434H27.1698V27.1698Z" fill="black"/>
<path d="M31.6981 27.1698H29.434V29.434H31.6981V27.1698Z" fill="black"/>
<path d="M33.9623 27.1698H31.6981V29.434H33.9623V27.1698Z" fill="black"/>
<path d="M36.2264 27.1698H33.9623V29.434H36.2264V27.1698Z" fill="black"/>
<path d="M38.4906 27.1698H36.2264V29.434H38.4906V27.1698Z" fill="black"/>
<path d="M45.283 27.1698H43.0189V29.434H45.283V27.1698Z" fill="black"/>
<path d="M52.0755 27.1698H49.8113V29.434H52.0755V27.1698Z" fill="black"/>
<path d="M54.3396 27.1698H52.0755V29.434H54.3396V27.1698Z" fill="black"/>
<path d="M58.8679 27.1698H56.6038V29.434H58.8679V27.1698Z" fill="black"/>
<path d="M65.6604 27.1698H63.3962V29.434H65.6604V27.1698Z" fill="black"/>
<path d="M74.717 27.1698H72.4528V29.434H74.717V27.1698Z" fill="black"/>
<path d="M76.9811 27.1698H74.717V29.434H76.9811V27.1698Z" fill="black"/>
<path d="M79.2453 27.1698H76.9811V29.434H79.2453V27.1698Z" fill="black"/>
<path d="M81.5094 27.1698H79.2453V29.434H81.5094V27.1698Z" fill="black"/>
<path d="M83.7736 27.1698H81.5094V29.434H83.7736V27.1698Z" fill="black"/>
<path d="M86.0377 27.1698H83.7736V29.434H86.0377V27.1698Z" fill="black"/>
<path d="M88.3019 27.1698H86.0377V29.434H88.3019V27.1698Z" fill="black"/>
<path d="M90.566 27.1698H88.3019V29.434H90.566V27.1698Z" fill="black"/>
<path d="M92.8302 27.1698H90.566V29.434H92.8302V27.1698Z" fill="black"/>
<path d="M97.3585 27.1698H95.0943V29.434H97.3585V27.1698Z" fill="black"/>
<path d="M110.943 27.1698H108.679V29.434H110.943V27.1698Z" fill="black"/>
<path d="M113.208 27.1698H110.943V29.434H113.208V27.1698Z" fill="black"/>
<path d="M2.26415 29.434H0V31.6981H2.26415V29.434Z" fill="black"/>
<path d="M9.0566 29.434H6.79245V31.6981H9.0566V29.434Z" fill="black"/>
<path d="M13.5849 29.434H11.3208V31.6981H13.5849V29.434Z" fill="black"/>
<path d="M18.1132 29.434H15.8491V31.6981H18.1132V29.434Z" fill="black"/>
<path d="M22.6415 29.434H20.3774V31.6981H22.6415V29.434Z" fill="black"/>
<path d="M24.9057 29.434H22.6415V31.6981H24.9057V29.434Z" fill="black"/>
<path d="M27.1698 29.434H24.9057V31.6981H27.1698V29.434Z" fill="black"/>
<path d="M29.434 29.434H27.1698V31.6981H29.434V29.434Z" fill="black"/>
<path d="M40.7547 29.434H38.4906V31.6981H40.7547V29.434Z" fill="black"/>
<path d="M43.0189 29.434H40.7547V31.6981H43.0189V29.434Z" fill="black"/>
<path d="M49.8113 29.434H47.5472V31.6981H49.8113V29.434Z" fill="black"/>
<path d="M56.6038 29.434H54.3396V31.6981H56.6038V29.434Z" fill="black"/>
<path d="M58.8679 29.434H56.6038V31.6981H58.8679V29.434Z" fill="black"/>
<path d="M67.9245 29.434H65.6604V31.6981H67.9245V29.434Z" fill="black"/>
<path d="M72.4528 29.434H70.1887V31.6981H72.4528V29.434Z" fill="black"/>
<path d="M76.9811 29.434H74.717V31.6981H76.9811V29.434Z" fill="black"/>
<path d="M79.2453 29.434H76.9811V31.6981H79.2453V29.434Z" fill="black"/>
<path d="M86.0377 29.434H83.7736V31.6981H86.0377V29.434Z" fill="black"/>
<path d="M92.8302 29.434H90.566V31.6981H92.8302V29.434Z" fill="black"/>
<path d="M99.6226 29.434H97.3585V31.6981H99.6226V29.434Z" fill="black"/>
<path d="M104.151 29.434H101.887V31.6981H104.151V29.434Z" fill="black"/>
<path d="M106.415 29.434H104.151V31.6981H106.415V29.434Z" fill="black"/>
<path d="M113.208 29.434H110.943V31.6981H113.208V29.434Z" fill="black"/>
<path d="M115.472 29.434H113.208V31.6981H115.472V29.434Z" fill="black"/>
<path d="M4.5283 31.6981H2.26415V33.9623H4.5283V31.6981Z" fill="black"/>
<path d="M9.0566 31.6981H6.79245V33.9623H9.0566V31.6981Z" fill="black"/>
<path d="M13.5849 31.6981H11.3208V33.9623H13.5849V31.6981Z" fill="black"/>
<path d="M15.8491 31.6981H13.5849V33.9623H15.8491V31.6981Z" fill="black"/>
<path d="M18.1132 31.6981H15.8491V33.9623H18.1132V31.6981Z" fill="black"/>
<path d="M20.3774 31.6981H18.1132V33.9623H20.3774V31.6981Z" fill="black"/>
<path d="M22.6415 31.6981H20.3774V33.9623H22.6415V31.6981Z" fill="black"/>
<path d="M29.434 31.6981H27.1698V33.9623H29.434V31.6981Z" fill="black"/>
<path d="M31.6981 31.6981H29.434V33.9623H31.6981V31.6981Z" fill="black"/>
<path d="M33.9623 31.6981H31.6981V33.9623H33.9623V31.6981Z" fill="black"/>
<path d="M38.4906 31.6981H36.2264V33.9623H38.4906V31.6981Z" fill="black"/>
<path d="M40.7547 31.6981H38.4906V33.9623H40.7547V31.6981Z" fill="black"/>
<path d="M43.0189 31.6981H40.7547V33.9623H43.0189V31.6981Z" fill="black"/>
<path d="M47.5472 31.6981H45.283V33.9623H47.5472V31.6981Z" fill="black"/>
<path d="M52.0755 31.6981H49.8113V33.9623H52.0755V31.6981Z" fill="black"/>
<path d="M54.3396 31.6981H52.0755V33.9623H54.3396V31.6981Z" fill="black"/>
<path d="M58.8679 31.6981H56.6038V33.9623H58.8679V31.6981Z" fill="black"/>
<path d="M61.1321 31.6981H58.8679V33.9623H61.1321V31.6981Z" fill="black"/>
<path d="M63.3962 31.6981H61.1321V33.9623H63.3962V31.6981Z" fill="black"/>
<path d="M65.6604 31.6981H63.3962V33.9623H65.6604V31.6981Z" fill="black"/>
<path d="M74.717 31.6981H72.4528V33.9623H74.717V31.6981Z" fill="black"/>
<path d="M86.0377 31.6981H83.7736V33.9623H86.0377V31.6981Z" fill="black"/>
<path d="M88.3019 31.6981H86.0377V33.9623H88.3019V31.6981Z" fill="black"/>
<path d="M95.0943 31.6981H92.8302V33.9623H95.0943V31.6981Z" fill="black"/>
<path d="M99.6226 31.6981H97.3585V33.9623H99.6226V31.6981Z" fill="black"/>
<path d="M113.208 31.6981H110.943V33.9623H113.208V31.6981Z" fill="black"/>
<path d="M115.472 31.6981H113.208V33.9623H115.472V31.6981Z" fill="black"/>
<path d="M120 31.6981H117.736V33.9623H120V31.6981Z" fill="black"/>
<path d="M2.26415 33.9623H0V36.2264H2.26415V33.9623Z" fill="black"/>
<path d="M4.5283 33.9623H2.26415V36.2264H4.5283V33.9623Z" fill="black"/>
<path d="M18.1132 33.9623H15.8491V36.2264H18.1132V33.9623Z" fill="black"/>
<path d="M20.3774 33.9623H18.1132V36.2264H20.3774V33.9623Z" fill="black"/>
<path d="M22.6415 33.9623H20.3774V36.2264H22.6415V33.9623Z" fill="black"/>
<path d="M24.9057 33.9623H22.6415V36.2264H24.9057V33.9623Z" fill="black"/>
<path d="M27.1698 33.9623H24.9057V36.2264H27.1698V33.9623Z" fill="black"/>
<path d="M29.434 33.9623H27.1698V36.2264H29.434V33.9623Z" fill="black"/>
<path d="M36.2264 33.9623H33.9623V36.2264H36.2264V33.9623Z" fill="black"/>
<path d="M38.4906 33.9623H36.2264V36.2264H38.4906V33.9623Z" fill="black"/>
<path d="M45.283 33.9623H43.0189V36.2264H45.283V33.9623Z" fill="black"/>
<path d="M58.8679 33.9623H56.6038V36.2264H58.8679V33.9623Z" fill="black"/>
<path d="M63.3962 33.9623H61.1321V36.2264H63.3962V33.9623Z" fill="black"/>
<path d="M70.1887 33.9623H67.9245V36.2264H70.1887V33.9623Z" fill="black"/>
<path d="M72.4528 33.9623H70.1887V36.2264H72.4528V33.9623Z" fill="black"/>
<path d="M74.717 33.9623H72.4528V36.2264H74.717V33.9623Z" fill="black"/>
<path d="M79.2453 33.9623H76.9811V36.2264H79.2453V33.9623Z" fill="black"/>
<path d="M81.5094 33.9623H79.2453V36.2264H81.5094V33.9623Z" fill="black"/>
<path d="M83.7736 33.9623H81.5094V36.2264H83.7736V33.9623Z" fill="black"/>
<path d="M92.8302 33.9623H90.566V36.2264H92.8302V33.9623Z" fill="black"/>
<path d="M97.3585 33.9623H95.0943V36.2264H97.3585V33.9623Z" fill="black"/>
<path d="M99.6226 33.9623H97.3585V36.2264H99.6226V33.9623Z" fill="black"/>
<path d="M101.887 33.9623H99.6226V36.2264H101.887V33.9623Z" fill="black"/>
<path d="M106.415 33.9623H104.151V36.2264H106.415V33.9623Z" fill="black"/>
<path d="M108.679 33.9623H106.415V36.2264H108.679V33.9623Z" fill="black"/>
<path d="M110.943 33.9623H108.679V36.2264H110.943V33.9623Z" fill="black"/>
<path d="M4.5283 36.2264H2.26415V38.4906H4.5283V36.2264Z" fill="black"/>
<path d="M6.79245 36.2264H4.5283V38.4906H6.79245V36.2264Z" fill="black"/>
<path d="M13.5849 36.2264H11.3208V38.4906H13.5849V36.2264Z" fill="black"/>
<path d="M15.8491 36.2264H13.5849V38.4906H15.8491V36.2264Z" fill="black"/>
<path d="M18.1132 36.2264H15.8491V38.4906H18.1132V36.2264Z" fill="black"/>
<path d="M22.6415 36.2264H20.3774V38.4906H22.6415V36.2264Z" fill="black"/>
<path d="M29.434 36.2264H27.1698V38.4906H29.434V36.2264Z" fill="black"/>
<path d="M31.6981 36.2264H29.434V38.4906H31.6981V36.2264Z" fill="black"/>
<path d="M36.2264 36.2264H33.9623V38.4906H36.2264V36.2264Z" fill="black"/>
<path d="M43.0189 36.2264H40.7547V38.4906H43.0189V36.2264Z" fill="black"/>
<path d="M45.283 36.2264H43.0189V38.4906H45.283V36.2264Z" fill="black"/>
<path d="M54.3396 36.2264H52.0755V38.4906H54.3396V36.2264Z" fill="black"/>
<path d="M56.6038 36.2264H54.3396V38.4906H56.6038V36.2264Z" fill="black"/>
<path d="M58.8679 36.2264H56.6038V38.4906H58.8679V36.2264Z" fill="black"/>
<path d="M63.3962 36.2264H61.1321V38.4906H63.3962V36.2264Z" fill="black"/>
<path d="M70.1887 36.2264H67.9245V38.4906H70.1887V36.2264Z" fill="black"/>
<path d="M74.717 36.2264H72.4528V38.4906H74.717V36.2264Z" fill="black"/>
<path d="M79.2453 36.2264H76.9811V38.4906H79.2453V36.2264Z" fill="black"/>
<path d="M81.5094 36.2264H79.2453V38.4906H81.5094V36.2264Z" fill="black"/>
<path d="M83.7736 36.2264H81.5094V38.4906H83.7736V36.2264Z" fill="black"/>
<path d="M86.0377 36.2264H83.7736V38.4906H86.0377V36.2264Z" fill="black"/>
<path d="M90.566 36.2264H88.3019V38.4906H90.566V36.2264Z" fill="black"/>
<path d="M99.6226 36.2264H97.3585V38.4906H99.6226V36.2264Z" fill="black"/>
<path d="M106.415 36.2264H104.151V38.4906H106.415V36.2264Z" fill="black"/>
<path d="M110.943 36.2264H108.679V38.4906H110.943V36.2264Z" fill="black"/>
<path d="M113.208 36.2264H110.943V38.4906H113.208V36.2264Z" fill="black"/>
<path d="M120 36.2264H117.736V38.4906H120V36.2264Z" fill="black"/>
<path d="M13.5849 38.4906H11.3208V40.7547H13.5849V38.4906Z" fill="black"/>
<path d="M20.3774 38.4906H18.1132V40.7547H20.3774V38.4906Z" fill="black"/>
<path d="M22.6415 38.4906H20.3774V40.7547H22.6415V38.4906Z" fill="black"/>
<path d="M29.434 38.4906H27.1698V40.7547H29.434V38.4906Z" fill="black"/>
<path d="M31.6981 38.4906H29.434V40.7547H31.6981V38.4906Z" fill="black"/>
<path d="M33.9623 38.4906H31.6981V40.7547H33.9623V38.4906Z" fill="black"/>
<path d="M36.2264 38.4906H33.9623V40.7547H36.2264V38.4906Z" fill="black"/>
<path d="M38.4906 38.4906H36.2264V40.7547H38.4906V38.4906Z" fill="black"/>
<path d="M40.7547 38.4906H38.4906V40.7547H40.7547V38.4906Z" fill="black"/>
<path d="M43.0189 38.4906H40.7547V40.7547H43.0189V38.4906Z" fill="black"/>
<path d="M45.283 38.4906H43.0189V40.7547H45.283V38.4906Z" fill="black"/>
<path d="M47.5472 38.4906H45.283V40.7547H47.5472V38.4906Z" fill="black"/>
<path d="M49.8113 38.4906H47.5472V40.7547H49.8113V38.4906Z" fill="black"/>
<path d="M52.0755 38.4906H49.8113V40.7547H52.0755V38.4906Z" fill="black"/>
<path d="M63.3962 38.4906H61.1321V40.7547H63.3962V38.4906Z" fill="black"/>
<path d="M65.6604 38.4906H63.3962V40.7547H65.6604V38.4906Z" fill="black"/>
<path d="M67.9245 38.4906H65.6604V40.7547H67.9245V38.4906Z" fill="black"/>
<path d="M74.717 38.4906H72.4528V40.7547H74.717V38.4906Z" fill="black"/>
<path d="M81.5094 38.4906H79.2453V40.7547H81.5094V38.4906Z" fill="black"/>
<path d="M83.7736 38.4906H81.5094V40.7547H83.7736V38.4906Z" fill="black"/>
<path d="M88.3019 38.4906H86.0377V40.7547H88.3019V38.4906Z" fill="black"/>
<path d="M92.8302 38.4906H90.566V40.7547H92.8302V38.4906Z" fill="black"/>
<path d="M95.0943 38.4906H92.8302V40.7547H95.0943V38.4906Z" fill="black"/>
<path d="M101.887 38.4906H99.6226V40.7547H101.887V38.4906Z" fill="black"/>
<path d="M104.151 38.4906H101.887V40.7547H104.151V38.4906Z" fill="black"/>
<path d="M108.679 38.4906H106.415V40.7547H108.679V38.4906Z" fill="black"/>
<path d="M113.208 38.4906H110.943V40.7547H113.208V38.4906Z" fill="black"/>
<path d="M117.736 38.4906H115.472V40.7547H117.736V38.4906Z" fill="black"/>
<path d="M120 38.4906H117.736V40.7547H120V38.4906Z" fill="black"/>
<path d="M2.26415 40.7547H0V43.0189H2.26415V40.7547Z" fill="black"/>
<path d="M6.79245 40.7547H4.5283V43.0189H6.79245V40.7547Z" fill="black"/>
<path d="M9.0566 40.7547H6.79245V43.0189H9.0566V40.7547Z" fill="black"/>
<path d="M15.8491 40.7547H13.5849V43.0189H15.8491V40.7547Z" fill="black"/>
<path d="M18.1132 40.7547H15.8491V43.0189H18.1132V40.7547Z" fill="black"/>
<path d="M22.6415 40.7547H20.3774V43.0189H22.6415V40.7547Z" fill="black"/>
<path d="M31.6981 40.7547H29.434V43.0189H31.6981V40.7547Z" fill="black"/>
<path d="M33.9623 40.7547H31.6981V43.0189H33.9623V40.7547Z" fill="black"/>
<path d="M36.2264 40.7547H33.9623V43.0189H36.2264V40.7547Z" fill="black"/>
<path d="M45.283 40.7547H43.0189V43.0189H45.283V40.7547Z" fill="black"/>
<path d="M47.5472 40.7547H45.283V43.0189H47.5472V40.7547Z" fill="black"/>
<path d="M49.8113 40.7547H47.5472V43.0189H49.8113V40.7547Z" fill="black"/>
<path d="M65.6604 40.7547H63.3962V43.0189H65.6604V40.7547Z" fill="black"/>
<path d="M83.7736 40.7547H81.5094V43.0189H83.7736V40.7547Z" fill="black"/>
<path d="M90.566 40.7547H88.3019V43.0189H90.566V40.7547Z" fill="black"/>
<path d="M99.6226 40.7547H97.3585V43.0189H99.6226V40.7547Z" fill="black"/>
<path d="M104.151 40.7547H101.887V43.0189H104.151V40.7547Z" fill="black"/>
<path d="M108.679 40.7547H106.415V43.0189H108.679V40.7547Z" fill="black"/>
<path d="M110.943 40.7547H108.679V43.0189H110.943V40.7547Z" fill="black"/>
<path d="M115.472 40.7547H113.208V43.0189H115.472V40.7547Z" fill="black"/>
<path d="M117.736 40.7547H115.472V43.0189H117.736V40.7547Z" fill="black"/>
<path d="M120 40.7547H117.736V43.0189H120V40.7547Z" fill="black"/>
<path d="M6.79245 43.0189H4.5283V45.283H6.79245V43.0189Z" fill="black"/>
<path d="M24.9057 43.0189H22.6415V45.283H24.9057V43.0189Z" fill="black"/>
<path d="M27.1698 43.0189H24.9057V45.283H27.1698V43.0189Z" fill="black"/>
<path d="M29.434 43.0189H27.1698V45.283H29.434V43.0189Z" fill="black"/>
<path d="M31.6981 43.0189H29.434V45.283H31.6981V43.0189Z" fill="black"/>
<path d="M36.2264 43.0189H33.9623V45.283H36.2264V43.0189Z" fill="black"/>
<path d="M38.4906 43.0189H36.2264V45.283H38.4906V43.0189Z" fill="black"/>
<path d="M40.7547 43.0189H38.4906V45.283H40.7547V43.0189Z" fill="black"/>
<path d="M47.5472 43.0189H45.283V45.283H47.5472V43.0189Z" fill="black"/>
<path d="M49.8113 43.0189H47.5472V45.283H49.8113V43.0189Z" fill="black"/>
<path d="M70.1887 43.0189H67.9245V45.283H70.1887V43.0189Z" fill="black"/>
<path d="M74.717 43.0189H72.4528V45.283H74.717V43.0189Z" fill="black"/>
<path d="M76.9811 43.0189H74.717V45.283H76.9811V43.0189Z" fill="black"/>
<path d="M79.2453 43.0189H76.9811V45.283H79.2453V43.0189Z" fill="black"/>
<path d="M81.5094 43.0189H79.2453V45.283H81.5094V43.0189Z" fill="black"/>
<path d="M83.7736 43.0189H81.5094V45.283H83.7736V43.0189Z" fill="black"/>
<path d="M88.3019 43.0189H86.0377V45.283H88.3019V43.0189Z" fill="black"/>
<path d="M95.0943 43.0189H92.8302V45.283H95.0943V43.0189Z" fill="black"/>
<path d="M108.679 43.0189H106.415V45.283H108.679V43.0189Z" fill="black"/>
<path d="M110.943 43.0189H108.679V45.283H110.943V43.0189Z" fill="black"/>
<path d="M113.208 43.0189H110.943V45.283H113.208V43.0189Z" fill="black"/>
<path d="M2.26415 45.283H0V47.5472H2.26415V45.283Z" fill="black"/>
<path d="M4.5283 45.283H2.26415V47.5472H4.5283V45.283Z" fill="black"/>
<path d="M6.79245 45.283H4.5283V47.5472H6.79245V45.283Z" fill="black"/>
<path d="M9.0566 45.283H6.79245V47.5472H9.0566V45.283Z" fill="black"/>
<path d="M15.8491 45.283H13.5849V47.5472H15.8491V45.283Z" fill="black"/>
<path d="M18.1132 45.283H15.8491V47.5472H18.1132V45.283Z" fill="black"/>
<path d="M22.6415 45.283H20.3774V47.5472H22.6415V45.283Z" fill="black"/>
<path d="M27.1698 45.283H24.9057V47.5472H27.1698V45.283Z" fill="black"/>
<path d="M31.6981 45.283H29.434V47.5472H31.6981V45.283Z" fill="black"/>
<path d="M40.7547 45.283H38.4906V47.5472H40.7547V45.283Z" fill="black"/>
<path d="M43.0189 45.283H40.7547V47.5472H43.0189V45.283Z" fill="black"/>
<path d="M47.5472 45.283H45.283V47.5472H47.5472V45.283Z" fill="black"/>
<path d="M49.8113 45.283H47.5472V47.5472H49.8113V45.283Z" fill="black"/>
<path d="M56.6038 45.283H54.3396V47.5472H56.6038V45.283Z" fill="black"/>
<path d="M58.8679 45.283H56.6038V47.5472H58.8679V45.283Z" fill="black"/>
<path d="M61.1321 45.283H58.8679V47.5472H61.1321V45.283Z" fill="black"/>
<path d="M72.4528 45.283H70.1887V47.5472H72.4528V45.283Z" fill="black"/>
<path d="M79.2453 45.283H76.9811V47.5472H79.2453V45.283Z" fill="black"/>
<path d="M81.5094 45.283H79.2453V47.5472H81.5094V45.283Z" fill="black"/>
<path d="M83.7736 45.283H81.5094V47.5472H83.7736V45.283Z" fill="black"/>
<path d="M90.566 45.283H88.3019V47.5472H90.566V45.283Z" fill="black"/>
<path d="M92.8302 45.283H90.566V47.5472H92.8302V45.283Z" fill="black"/>
<path d="M95.0943 45.283H92.8302V47.5472H95.0943V45.283Z" fill="black"/>
<path d="M97.3585 45.283H95.0943V47.5472H97.3585V45.283Z" fill="black"/>
<path d="M101.887 45.283H99.6226V47.5472H101.887V45.283Z" fill="black"/>
<path d="M110.943 45.283H108.679V47.5472H110.943V45.283Z" fill="black"/>
<path d="M115.472 45.283H113.208V47.5472H115.472V45.283Z" fill="black"/>
<path d="M120 45.283H117.736V47.5472H120V45.283Z" fill="black"/>
<path d="M4.5283 47.5472H2.26415V49.8113H4.5283V47.5472Z" fill="black"/>
<path d="M9.0566 47.5472H6.79245V49.8113H9.0566V47.5472Z" fill="black"/>
<path d="M11.3208 47.5472H9.0566V49.8113H11.3208V47.5472Z" fill="black"/>
<path d="M18.1132 47.5472H15.8491V49.8113H18.1132V47.5472Z" fill="black"/>
<path d="M20.3774 47.5472H18.1132V49.8113H20.3774V47.5472Z" fill="black"/>
<path d="M24.9057 47.5472H22.6415V49.8113H24.9057V47.5472Z" fill="black"/>
<path d="M33.9623 47.5472H31.6981V49.8113H33.9623V47.5472Z" fill="black"/>
<path d="M36.2264 47.5472H33.9623V49.8113H36.2264V47.5472Z" fill="black"/>
<path d="M38.4906 47.5472H36.2264V49.8113H38.4906V47.5472Z" fill="black"/>
<path d="M40.7547 47.5472H38.4906V49.8113H40.7547V47.5472Z" fill="black"/>
<path d="M43.0189 47.5472H40.7547V49.8113H43.0189V47.5472Z" fill="black"/>
<path d="M47.5472 47.5472H45.283V49.8113H47.5472V47.5472Z" fill="black"/>
<path d="M49.8113 47.5472H47.5472V49.8113H49.8113V47.5472Z" fill="black"/>
<path d="M54.3396 47.5472H52.0755V49.8113H54.3396V47.5472Z" fill="black"/>
<path d="M56.6038 47.5472H54.3396V49.8113H56.6038V47.5472Z" fill="black"/>
<path d="M63.3962 47.5472H61.1321V49.8113H63.3962V47.5472Z" fill="black"/>
<path d="M72.4528 47.5472H70.1887V49.8113H72.4528V47.5472Z" fill="black"/>
<path d="M74.717 47.5472H72.4528V49.8113H74.717V47.5472Z" fill="black"/>
<path d="M83.7736 47.5472H81.5094V49.8113H83.7736V47.5472Z" fill="black"/>
<path d="M90.566 47.5472H88.3019V49.8113H90.566V47.5472Z" fill="black"/>
<path d="M92.8302 47.5472H90.566V49.8113H92.8302V47.5472Z" fill="black"/>
<path d="M115.472 47.5472H113.208V49.8113H115.472V47.5472Z" fill="black"/>
<path d="M117.736 47.5472H115.472V49.8113H117.736V47.5472Z" fill="black"/>
<path d="M120 47.5472H117.736V49.8113H120V47.5472Z" fill="black"/>
<path d="M2.26415 49.8113H0V52.0755H2.26415V49.8113Z" fill="black"/>
<path d="M4.5283 49.8113H2.26415V52.0755H4.5283V49.8113Z" fill="black"/>
<path d="M15.8491 49.8113H13.5849V52.0755H15.8491V49.8113Z" fill="black"/>
<path d="M18.1132 49.8113H15.8491V52.0755H18.1132V49.8113Z" fill="black"/>
<path d="M22.6415 49.8113H20.3774V52.0755H22.6415V49.8113Z" fill="black"/>
<path d="M27.1698 49.8113H24.9057V52.0755H27.1698V49.8113Z" fill="black"/>
<path d="M29.434 49.8113H27.1698V52.0755H29.434V49.8113Z" fill="black"/>
<path d="M38.4906 49.8113H36.2264V52.0755H38.4906V49.8113Z" fill="black"/>
<path d="M43.0189 49.8113H40.7547V52.0755H43.0189V49.8113Z" fill="black"/>
<path d="M45.283 49.8113H43.0189V52.0755H45.283V49.8113Z" fill="black"/>
<path d="M47.5472 49.8113H45.283V52.0755H47.5472V49.8113Z" fill="black"/>
<path d="M52.0755 49.8113H49.8113V52.0755H52.0755V49.8113Z" fill="black"/>
<path d="M56.6038 49.8113H54.3396V52.0755H56.6038V49.8113Z" fill="black"/>
<path d="M58.8679 49.8113H56.6038V52.0755H58.8679V49.8113Z" fill="black"/>
<path d="M63.3962 49.8113H61.1321V52.0755H63.3962V49.8113Z" fill="black"/>
<path d="M65.6604 49.8113H63.3962V52.0755H65.6604V49.8113Z" fill="black"/>
<path d="M79.2453 49.8113H76.9811V52.0755H79.2453V49.8113Z" fill="black"/>
<path d="M81.5094 49.8113H79.2453V52.0755H81.5094V49.8113Z" fill="black"/>
<path d="M83.7736 49.8113H81.5094V52.0755H83.7736V49.8113Z" fill="black"/>
<path d="M86.0377 49.8113H83.7736V52.0755H86.0377V49.8113Z" fill="black"/>
<path d="M90.566 49.8113H88.3019V52.0755H90.566V49.8113Z" fill="black"/>
<path d="M92.8302 49.8113H90.566V52.0755H92.8302V49.8113Z" fill="black"/>
<path d="M95.0943 49.8113H92.8302V52.0755H95.0943V49.8113Z" fill="black"/>
<path d="M104.151 49.8113H101.887V52.0755H104.151V49.8113Z" fill="black"/>
<path d="M115.472 49.8113H113.208V52.0755H115.472V49.8113Z" fill="black"/>
<path d="M2.26415 52.0755H0V54.3396H2.26415V52.0755Z" fill="black"/>
<path d="M6.79245 52.0755H4.5283V54.3396H6.79245V52.0755Z" fill="black"/>
<path d="M9.0566 52.0755H6.79245V54.3396H9.0566V52.0755Z" fill="black"/>
<path d="M13.5849 52.0755H11.3208V54.3396H13.5849V52.0755Z" fill="black"/>
<path d="M18.1132 52.0755H15.8491V54.3396H18.1132V52.0755Z" fill="black"/>
<path d="M20.3774 52.0755H18.1132V54.3396H20.3774V52.0755Z" fill="black"/>
<path d="M22.6415 52.0755H20.3774V54.3396H22.6415V52.0755Z" fill="black"/>
<path d="M29.434 52.0755H27.1698V54.3396H29.434V52.0755Z" fill="black"/>
<path d="M31.6981 52.0755H29.434V54.3396H31.6981V52.0755Z" fill="black"/>
<path d="M40.7547 52.0755H38.4906V54.3396H40.7547V52.0755Z" fill="black"/>
<path d="M43.0189 52.0755H40.7547V54.3396H43.0189V52.0755Z" fill="black"/>
<path d="M47.5472 52.0755H45.283V54.3396H47.5472V52.0755Z" fill="black"/>
<path d="M52.0755 52.0755H49.8113V54.3396H52.0755V52.0755Z" fill="black"/>
<path d="M54.3396 52.0755H52.0755V54.3396H54.3396V52.0755Z" fill="black"/>
<path d="M56.6038 52.0755H54.3396V54.3396H56.6038V52.0755Z" fill="black"/>
<path d="M58.8679 52.0755H56.6038V54.3396H58.8679V52.0755Z" fill="black"/>
<path d="M61.1321 52.0755H58.8679V54.3396H61.1321V52.0755Z" fill="black"/>
<path d="M63.3962 52.0755H61.1321V54.3396H63.3962V52.0755Z" fill="black"/>
<path d="M65.6604 52.0755H63.3962V54.3396H65.6604V52.0755Z" fill="black"/>
<path d="M70.1887 52.0755H67.9245V54.3396H70.1887V52.0755Z" fill="black"/>
<path d="M72.4528 52.0755H70.1887V54.3396H72.4528V52.0755Z" fill="black"/>
<path d="M79.2453 52.0755H76.9811V54.3396H79.2453V52.0755Z" fill="black"/>
<path d="M83.7736 52.0755H81.5094V54.3396H83.7736V52.0755Z" fill="black"/>
<path d="M86.0377 52.0755H83.7736V54.3396H86.0377V52.0755Z" fill="black"/>
<path d="M88.3019 52.0755H86.0377V54.3396H88.3019V52.0755Z" fill="black"/>
<path d="M90.566 52.0755H88.3019V54.3396H90.566V52.0755Z" fill="black"/>
<path d="M92.8302 52.0755H90.566V54.3396H92.8302V52.0755Z" fill="black"/>
<path d="M95.0943 52.0755H92.8302V54.3396H95.0943V52.0755Z" fill="black"/>
<path d="M97.3585 52.0755H95.0943V54.3396H97.3585V52.0755Z" fill="black"/>
<path d="M106.415 52.0755H104.151V54.3396H106.415V52.0755Z" fill="black"/>
<path d="M108.679 52.0755H106.415V54.3396H108.679V52.0755Z" fill="black"/>
<path d="M110.943 52.0755H108.679V54.3396H110.943V52.0755Z" fill="black"/>
<path d="M115.472 52.0755H113.208V54.3396H115.472V52.0755Z" fill="black"/>
<path d="M2.26415 54.3396H0V56.6038H2.26415V54.3396Z" fill="black"/>
<path d="M11.3208 54.3396H9.0566V56.6038H11.3208V54.3396Z" fill="black"/>
<path d="M13.5849 54.3396H11.3208V56.6038H13.5849V54.3396Z" fill="black"/>
<path d="M15.8491 54.3396H13.5849V56.6038H15.8491V54.3396Z" fill="black"/>
<path d="M18.1132 54.3396H15.8491V56.6038H18.1132V54.3396Z" fill="black"/>
<path d="M20.3774 54.3396H18.1132V56.6038H20.3774V54.3396Z" fill="black"/>
<path d="M27.1698 54.3396H24.9057V56.6038H27.1698V54.3396Z" fill="black"/>
<path d="M29.434 54.3396H27.1698V56.6038H29.434V54.3396Z" fill="black"/>
<path d="M31.6981 54.3396H29.434V56.6038H31.6981V54.3396Z" fill="black"/>
<path d="M33.9623 54.3396H31.6981V56.6038H33.9623V54.3396Z" fill="black"/>
<path d="M38.4906 54.3396H36.2264V56.6038H38.4906V54.3396Z" fill="black"/>
<path d="M47.5472 54.3396H45.283V56.6038H47.5472V54.3396Z" fill="black"/>
<path d="M52.0755 54.3396H49.8113V56.6038H52.0755V54.3396Z" fill="black"/>
<path d="M56.6038 54.3396H54.3396V56.6038H56.6038V54.3396Z" fill="black"/>
<path d="M58.8679 54.3396H56.6038V56.6038H58.8679V54.3396Z" fill="black"/>
<path d="M61.1321 54.3396H58.8679V56.6038H61.1321V54.3396Z" fill="black"/>
<path d="M63.3962 54.3396H61.1321V56.6038H63.3962V54.3396Z" fill="black"/>
<path d="M65.6604 54.3396H63.3962V56.6038H65.6604V54.3396Z" fill="black"/>
<path d="M67.9245 54.3396H65.6604V56.6038H67.9245V54.3396Z" fill="black"/>
<path d="M74.717 54.3396H72.4528V56.6038H74.717V54.3396Z" fill="black"/>
<path d="M76.9811 54.3396H74.717V56.6038H76.9811V54.3396Z" fill="black"/>
<path d="M81.5094 54.3396H79.2453V56.6038H81.5094V54.3396Z" fill="black"/>
<path d="M83.7736 54.3396H81.5094V56.6038H83.7736V54.3396Z" fill="black"/>
<path d="M88.3019 54.3396H86.0377V56.6038H88.3019V54.3396Z" fill="black"/>
<path d="M90.566 54.3396H88.3019V56.6038H90.566V54.3396Z" fill="black"/>
<path d="M92.8302 54.3396H90.566V56.6038H92.8302V54.3396Z" fill="black"/>
<path d="M95.0943 54.3396H92.8302V56.6038H95.0943V54.3396Z" fill="black"/>
<path d="M101.887 54.3396H99.6226V56.6038H101.887V54.3396Z" fill="black"/>
<path d="M104.151 54.3396H101.887V56.6038H104.151V54.3396Z" fill="black"/>
<path d="M106.415 54.3396H104.151V56.6038H106.415V54.3396Z" fill="black"/>
<path d="M108.679 54.3396H106.415V56.6038H108.679V54.3396Z" fill="black"/>
<path d="M110.943 54.3396H108.679V56.6038H110.943V54.3396Z" fill="black"/>
<path d="M4.5283 56.6038H2.26415V58.8679H4.5283V56.6038Z" fill="black"/>
<path d="M11.3208 56.6038H9.0566V58.8679H11.3208V56.6038Z" fill="black"/>
<path d="M20.3774 56.6038H18.1132V58.8679H20.3774V56.6038Z" fill="black"/>
<path d="M22.6415 56.6038H20.3774V58.8679H22.6415V56.6038Z" fill="black"/>
<path d="M29.434 56.6038H27.1698V58.8679H29.434V56.6038Z" fill="black"/>
<path d="M40.7547 56.6038H38.4906V58.8679H40.7547V56.6038Z" fill="black"/>
<path d="M43.0189 56.6038H40.7547V58.8679H43.0189V56.6038Z" fill="black"/>
<path d="M56.6038 56.6038H54.3396V58.8679H56.6038V56.6038Z" fill="black"/>
<path d="M65.6604 56.6038H63.3962V58.8679H65.6604V56.6038Z" fill="black"/>
<path d="M67.9245 56.6038H65.6604V58.8679H67.9245V56.6038Z" fill="black"/>
<path d="M72.4528 56.6038H70.1887V58.8679H72.4528V56.6038Z" fill="black"/>
<path d="M79.2453 56.6038H76.9811V58.8679H79.2453V56.6038Z" fill="black"/>
<path d="M81.5094 56.6038H79.2453V58.8679H81.5094V56.6038Z" fill="black"/>
<path d="M86.0377 56.6038H83.7736V58.8679H86.0377V56.6038Z" fill="black"/>
<path d="M90.566 56.6038H88.3019V58.8679H90.566V56.6038Z" fill="black"/>
<path d="M99.6226 56.6038H97.3585V58.8679H99.6226V56.6038Z" fill="black"/>
<path d="M101.887 56.6038H99.6226V58.8679H101.887V56.6038Z" fill="black"/>
<path d="M110.943 56.6038H108.679V58.8679H110.943V56.6038Z" fill="black"/>
<path d="M113.208 56.6038H110.943V58.8679H113.208V56.6038Z" fill="black"/>
<path d="M6.79245 58.8679H4.5283V61.1321H6.79245V58.8679Z" fill="black"/>
<path d="M11.3208 58.8679H9.0566V61.1321H11.3208V58.8679Z" fill="black"/>
<path d="M15.8491 58.8679H13.5849V61.1321H15.8491V58.8679Z" fill="black"/>
<path d="M20.3774 58.8679H18.1132V61.1321H20.3774V58.8679Z" fill="black"/>
<path d="M24.9057 58.8679H22.6415V61.1321H24.9057V58.8679Z" fill="black"/>
<path d="M31.6981 58.8679H29.434V61.1321H31.6981V58.8679Z" fill="black"/>
<path d="M36.2264 58.8679H33.9623V61.1321H36.2264V58.8679Z" fill="black"/>
<path d="M38.4906 58.8679H36.2264V61.1321H38.4906V58.8679Z" fill="black"/>
<path d="M49.8113 58.8679H47.5472V61.1321H49.8113V58.8679Z" fill="black"/>
<path d="M52.0755 58.8679H49.8113V61.1321H52.0755V58.8679Z" fill="black"/>
<path d="M56.6038 58.8679H54.3396V61.1321H56.6038V58.8679Z" fill="black"/>
<path d="M61.1321 58.8679H58.8679V61.1321H61.1321V58.8679Z" fill="black"/>
<path d="M65.6604 58.8679H63.3962V61.1321H65.6604V58.8679Z" fill="black"/>
<path d="M67.9245 58.8679H65.6604V61.1321H67.9245V58.8679Z" fill="black"/>
<path d="M72.4528 58.8679H70.1887V61.1321H72.4528V58.8679Z" fill="black"/>
<path d="M81.5094 58.8679H79.2453V61.1321H81.5094V58.8679Z" fill="black"/>
<path d="M83.7736 58.8679H81.5094V61.1321H83.7736V58.8679Z" fill="black"/>
<path d="M88.3019 58.8679H86.0377V61.1321H88.3019V58.8679Z" fill="black"/>
<path d="M90.566 58.8679H88.3019V61.1321H90.566V58.8679Z" fill="black"/>
<path d="M95.0943 58.8679H92.8302V61.1321H95.0943V58.8679Z" fill="black"/>
<path d="M99.6226 58.8679H97.3585V61.1321H99.6226V58.8679Z" fill="black"/>
<path d="M101.887 58.8679H99.6226V61.1321H101.887V58.8679Z" fill="black"/>
<path d="M106.415 58.8679H104.151V61.1321H106.415V58.8679Z" fill="black"/>
<path d="M110.943 58.8679H108.679V61.1321H110.943V58.8679Z" fill="black"/>
<path d="M117.736 58.8679H115.472V61.1321H117.736V58.8679Z" fill="black"/>
<path d="M120 58.8679H117.736V61.1321H120V58.8679Z" fill="black"/>
<path d="M6.79245 61.1321H4.5283V63.3962H6.79245V61.1321Z" fill="black"/>
<path d="M9.0566 61.1321H6.79245V63.3962H9.0566V61.1321Z" fill="black"/>
<path d="M11.3208 61.1321H9.0566V63.3962H11.3208V61.1321Z" fill="black"/>
<path d="M20.3774 61.1321H18.1132V63.3962H20.3774V61.1321Z" fill="black"/>
<path d="M24.9057 61.1321H22.6415V63.3962H24.9057V61.1321Z" fill="black"/>
<path d="M31.6981 61.1321H29.434V63.3962H31.6981V61.1321Z" fill="black"/>
<path d="M33.9623 61.1321H31.6981V63.3962H33.9623V61.1321Z" fill="black"/>
<path d="M36.2264 61.1321H33.9623V63.3962H36.2264V61.1321Z" fill="black"/>
<path d="M38.4906 61.1321H36.2264V63.3962H38.4906V61.1321Z" fill="black"/>
<path d="M43.0189 61.1321H40.7547V63.3962H43.0189V61.1321Z" fill="black"/>
<path d="M45.283 61.1321H43.0189V63.3962H45.283V61.1321Z" fill="black"/>
<path d="M47.5472 61.1321H45.283V63.3962H47.5472V61.1321Z" fill="black"/>
<path d="M49.8113 61.1321H47.5472V63.3962H49.8113V61.1321Z" fill="black"/>
<path d="M56.6038 61.1321H54.3396V63.3962H56.6038V61.1321Z" fill="black"/>
<path d="M65.6604 61.1321H63.3962V63.3962H65.6604V61.1321Z" fill="black"/>
<path d="M72.4528 61.1321H70.1887V63.3962H72.4528V61.1321Z" fill="black"/>
<path d="M74.717 61.1321H72.4528V63.3962H74.717V61.1321Z" fill="black"/>
<path d="M76.9811 61.1321H74.717V63.3962H76.9811V61.1321Z" fill="black"/>
<path d="M79.2453 61.1321H76.9811V63.3962H79.2453V61.1321Z" fill="black"/>
<path d="M83.7736 61.1321H81.5094V63.3962H83.7736V61.1321Z" fill="black"/>
<path d="M90.566 61.1321H88.3019V63.3962H90.566V61.1321Z" fill="black"/>
<path d="M92.8302 61.1321H90.566V63.3962H92.8302V61.1321Z" fill="black"/>
<path d="M95.0943 61.1321H92.8302V63.3962H95.0943V61.1321Z" fill="black"/>
<path d="M99.6226 61.1321H97.3585V63.3962H99.6226V61.1321Z" fill="black"/>
<path d="M101.887 61.1321H99.6226V63.3962H101.887V61.1321Z" fill="black"/>
<path d="M110.943 61.1321H108.679V63.3962H110.943V61.1321Z" fill="black"/>
<path d="M117.736 61.1321H115.472V63.3962H117.736V61.1321Z" fill="black"/>
<path d="M4.5283 63.3962H2.26415V65.6604H4.5283V63.3962Z" fill="black"/>
<path d="M6.79245 63.3962H4.5283V65.6604H6.79245V63.3962Z" fill="black"/>
<path d="M9.0566 63.3962H6.79245V65.6604H9.0566V63.3962Z" fill="black"/>
<path d="M11.3208 63.3962H9.0566V65.6604H11.3208V63.3962Z" fill="black"/>
<path d="M13.5849 63.3962H11.3208V65.6604H13.5849V63.3962Z" fill="black"/>
<path d="M15.8491 63.3962H13.5849V65.6604H15.8491V63.3962Z" fill="black"/>
<path d="M18.1132 63.3962H15.8491V65.6604H18.1132V63.3962Z" fill="black"/>
<path d="M20.3774 63.3962H18.1132V65.6604H20.3774V63.3962Z" fill="black"/>
<path d="M22.6415 63.3962H20.3774V65.6604H22.6415V63.3962Z" fill="black"/>
<path d="M24.9057 63.3962H22.6415V65.6604H24.9057V63.3962Z" fill="black"/>
<path d="M27.1698 63.3962H24.9057V65.6604H27.1698V63.3962Z" fill="black"/>
<path d="M29.434 63.3962H27.1698V65.6604H29.434V63.3962Z" fill="black"/>
<path d="M36.2264 63.3962H33.9623V65.6604H36.2264V63.3962Z" fill="black"/>
<path d="M38.4906 63.3962H36.2264V65.6604H38.4906V63.3962Z" fill="black"/>
<path d="M49.8113 63.3962H47.5472V65.6604H49.8113V63.3962Z" fill="black"/>
<path d="M54.3396 63.3962H52.0755V65.6604H54.3396V63.3962Z" fill="black"/>
<path d="M56.6038 63.3962H54.3396V65.6604H56.6038V63.3962Z" fill="black"/>
<path d="M58.8679 63.3962H56.6038V65.6604H58.8679V63.3962Z" fill="black"/>
<path d="M61.1321 63.3962H58.8679V65.6604H61.1321V63.3962Z" fill="black"/>
<path d="M63.3962 63.3962H61.1321V65.6604H63.3962V63.3962Z" fill="black"/>
<path d="M65.6604 63.3962H63.3962V65.6604H65.6604V63.3962Z" fill="black"/>
<path d="M70.1887 63.3962H67.9245V65.6604H70.1887V63.3962Z" fill="black"/>
<path d="M74.717 63.3962H72.4528V65.6604H74.717V63.3962Z" fill="black"/>
<path d="M76.9811 63.3962H74.717V65.6604H76.9811V63.3962Z" fill="black"/>
<path d="M83.7736 63.3962H81.5094V65.6604H83.7736V63.3962Z" fill="black"/>
<path d="M90.566 63.3962H88.3019V65.6604H90.566V63.3962Z" fill="black"/>
<path d="M95.0943 63.3962H92.8302V65.6604H95.0943V63.3962Z" fill="black"/>
<path d="M101.887 63.3962H99.6226V65.6604H101.887V63.3962Z" fill="black"/>
<path d="M104.151 63.3962H101.887V65.6604H104.151V63.3962Z" fill="black"/>
<path d="M106.415 63.3962H104.151V65.6604H106.415V63.3962Z" fill="black"/>
<path d="M108.679 63.3962H106.415V65.6604H108.679V63.3962Z" fill="black"/>
<path d="M110.943 63.3962H108.679V65.6604H110.943V63.3962Z" fill="black"/>
<path d="M120 63.3962H117.736V65.6604H120V63.3962Z" fill="black"/>
<path d="M6.79245 65.6604H4.5283V67.9245H6.79245V65.6604Z" fill="black"/>
<path d="M22.6415 65.6604H20.3774V67.9245H22.6415V65.6604Z" fill="black"/>
<path d="M24.9057 65.6604H22.6415V67.9245H24.9057V65.6604Z" fill="black"/>
<path d="M27.1698 65.6604H24.9057V67.9245H27.1698V65.6604Z" fill="black"/>
<path d="M29.434 65.6604H27.1698V67.9245H29.434V65.6604Z" fill="black"/>
<path d="M31.6981 65.6604H29.434V67.9245H31.6981V65.6604Z" fill="black"/>
<path d="M36.2264 65.6604H33.9623V67.9245H36.2264V65.6604Z" fill="black"/>
<path d="M38.4906 65.6604H36.2264V67.9245H38.4906V65.6604Z" fill="black"/>
<path d="M47.5472 65.6604H45.283V67.9245H47.5472V65.6604Z" fill="black"/>
<path d="M49.8113 65.6604H47.5472V67.9245H49.8113V65.6604Z" fill="black"/>
<path d="M52.0755 65.6604H49.8113V67.9245H52.0755V65.6604Z" fill="black"/>
<path d="M54.3396 65.6604H52.0755V67.9245H54.3396V65.6604Z" fill="black"/>
<path d="M65.6604 65.6604H63.3962V67.9245H65.6604V65.6604Z" fill="black"/>
<path d="M74.717 65.6604H72.4528V67.9245H74.717V65.6604Z" fill="black"/>
<path d="M83.7736 65.6604H81.5094V67.9245H83.7736V65.6604Z" fill="black"/>
<path d="M86.0377 65.6604H83.7736V67.9245H86.0377V65.6604Z" fill="black"/>
<path d="M88.3019 65.6604H86.0377V67.9245H88.3019V65.6604Z" fill="black"/>
<path d="M92.8302 65.6604H90.566V67.9245H92.8302V65.6604Z" fill="black"/>
<path d="M95.0943 65.6604H92.8302V67.9245H95.0943V65.6604Z" fill="black"/>
<path d="M101.887 65.6604H99.6226V67.9245H101.887V65.6604Z" fill="black"/>
<path d="M104.151 65.6604H101.887V67.9245H104.151V65.6604Z" fill="black"/>
<path d="M106.415 65.6604H104.151V67.9245H106.415V65.6604Z" fill="black"/>
<path d="M115.472 65.6604H113.208V67.9245H115.472V65.6604Z" fill="black"/>
<path d="M117.736 65.6604H115.472V67.9245H117.736V65.6604Z" fill="black"/>
<path d="M120 65.6604H117.736V67.9245H120V65.6604Z" fill="black"/>
<path d="M2.26415 67.9245H0V70.1887H2.26415V67.9245Z" fill="black"/>
<path d="M4.5283 67.9245H2.26415V70.1887H4.5283V67.9245Z" fill="black"/>
<path d="M9.0566 67.9245H6.79245V70.1887H9.0566V67.9245Z" fill="black"/>
<path d="M11.3208 67.9245H9.0566V70.1887H11.3208V67.9245Z" fill="black"/>
<path d="M13.5849 67.9245H11.3208V70.1887H13.5849V67.9245Z" fill="black"/>
<path d="M15.8491 67.9245H13.5849V70.1887H15.8491V67.9245Z" fill="black"/>
<path d="M18.1132 67.9245H15.8491V70.1887H18.1132V67.9245Z" fill="black"/>
<path d="M20.3774 67.9245H18.1132V70.1887H20.3774V67.9245Z" fill="black"/>
<path d="M31.6981 67.9245H29.434V70.1887H31.6981V67.9245Z" fill="black"/>
<path d="M45.283 67.9245H43.0189V70.1887H45.283V67.9245Z" fill="black"/>
<path d="M49.8113 67.9245H47.5472V70.1887H49.8113V67.9245Z" fill="black"/>
<path d="M56.6038 67.9245H54.3396V70.1887H56.6038V67.9245Z" fill="black"/>
<path d="M58.8679 67.9245H56.6038V70.1887H58.8679V67.9245Z" fill="black"/>
<path d="M63.3962 67.9245H61.1321V70.1887H63.3962V67.9245Z" fill="black"/>
<path d="M67.9245 67.9245H65.6604V70.1887H67.9245V67.9245Z" fill="black"/>
<path d="M72.4528 67.9245H70.1887V70.1887H72.4528V67.9245Z" fill="black"/>
<path d="M74.717 67.9245H72.4528V70.1887H74.717V67.9245Z" fill="black"/>
<path d="M76.9811 67.9245H74.717V70.1887H76.9811V67.9245Z" fill="black"/>
<path d="M79.2453 67.9245H76.9811V70.1887H79.2453V67.9245Z" fill="black"/>
<path d="M81.5094 67.9245H79.2453V70.1887H81.5094V67.9245Z" fill="black"/>
<path d="M83.7736 67.9245H81.5094V70.1887H83.7736V67.9245Z" fill="black"/>
<path d="M92.8302 67.9245H90.566V70.1887H92.8302V67.9245Z" fill="black"/>
<path d="M95.0943 67.9245H92.8302V70.1887H95.0943V67.9245Z" fill="black"/>
<path d="M101.887 67.9245H99.6226V70.1887H101.887V67.9245Z" fill="black"/>
<path d="M104.151 67.9245H101.887V70.1887H104.151V67.9245Z" fill="black"/>
<path d="M106.415 67.9245H104.151V70.1887H106.415V67.9245Z" fill="black"/>
<path d="M108.679 67.9245H106.415V70.1887H108.679V67.9245Z" fill="black"/>
<path d="M115.472 67.9245H113.208V70.1887H115.472V67.9245Z" fill="black"/>
<path d="M117.736 67.9245H115.472V70.1887H117.736V67.9245Z" fill="black"/>
<path d="M120 67.9245H117.736V70.1887H120V67.9245Z" fill="black"/>
<path d="M6.79245 70.1887H4.5283V72.4528H6.79245V70.1887Z" fill="black"/>
<path d="M9.0566 70.1887H6.79245V72.4528H9.0566V70.1887Z" fill="black"/>
<path d="M13.5849 70.1887H11.3208V72.4528H13.5849V70.1887Z" fill="black"/>
<path d="M18.1132 70.1887H15.8491V72.4528H18.1132V70.1887Z" fill="black"/>
<path d="M24.9057 70.1887H22.6415V72.4528H24.9057V70.1887Z" fill="black"/>
<path d="M27.1698 70.1887H24.9057V72.4528H27.1698V70.1887Z" fill="black"/>
<path d="M29.434 70.1887H27.1698V72.4528H29.434V70.1887Z" fill="black"/>
<path d="M31.6981 70.1887H29.434V72.4528H31.6981V70.1887Z" fill="black"/>
<path d="M38.4906 70.1887H36.2264V72.4528H38.4906V70.1887Z" fill="black"/>
<path d="M40.7547 70.1887H38.4906V72.4528H40.7547V70.1887Z" fill="black"/>
<path d="M43.0189 70.1887H40.7547V72.4528H43.0189V70.1887Z" fill="black"/>
<path d="M47.5472 70.1887H45.283V72.4528H47.5472V70.1887Z" fill="black"/>
<path d="M49.8113 70.1887H47.5472V72.4528H49.8113V70.1887Z" fill="black"/>
<path d="M61.1321 70.1887H58.8679V72.4528H61.1321V70.1887Z" fill="black"/>
<path d="M63.3962 70.1887H61.1321V72.4528H63.3962V70.1887Z" fill="black"/>
<path d="M65.6604 70.1887H63.3962V72.4528H65.6604V70.1887Z" fill="black"/>
<path d="M70.1887 70.1887H67.9245V72.4528H70.1887V70.1887Z" fill="black"/>
<path d="M74.717 70.1887H72.4528V72.4528H74.717V70.1887Z" fill="black"/>
<path d="M79.2453 70.1887H76.9811V72.4528H79.2453V70.1887Z" fill="black"/>
<path d="M83.7736 70.1887H81.5094V72.4528H83.7736V70.1887Z" fill="black"/>
<path d="M90.566 70.1887H88.3019V72.4528H90.566V70.1887Z" fill="black"/>
<path d="M97.3585 70.1887H95.0943V72.4528H97.3585V70.1887Z" fill="black"/>
<path d="M99.6226 70.1887H97.3585V72.4528H99.6226V70.1887Z" fill="black"/>
<path d="M101.887 70.1887H99.6226V72.4528H101.887V70.1887Z" fill="black"/>
<path d="M108.679 70.1887H106.415V72.4528H108.679V70.1887Z" fill="black"/>
<path d="M113.208 70.1887H110.943V72.4528H113.208V70.1887Z" fill="black"/>
<path d="M2.26415 72.4528H0V74.717H2.26415V72.4528Z" fill="black"/>
<path d="M6.79245 72.4528H4.5283V74.717H6.79245V72.4528Z" fill="black"/>
<path d="M15.8491 72.4528H13.5849V74.717H15.8491V72.4528Z" fill="black"/>
<path d="M20.3774 72.4528H18.1132V74.717H20.3774V72.4528Z" fill="black"/>
<path d="M29.434 72.4528H27.1698V74.717H29.434V72.4528Z" fill="black"/>
<path d="M36.2264 72.4528H33.9623V74.717H36.2264V72.4528Z" fill="black"/>
<path d="M40.7547 72.4528H38.4906V74.717H40.7547V72.4528Z" fill="black"/>
<path d="M47.5472 72.4528H45.283V74.717H47.5472V72.4528Z" fill="black"/>
<path d="M49.8113 72.4528H47.5472V74.717H49.8113V72.4528Z" fill="black"/>
<path d="M52.0755 72.4528H49.8113V74.717H52.0755V72.4528Z" fill="black"/>
<path d="M54.3396 72.4528H52.0755V74.717H54.3396V72.4528Z" fill="black"/>
<path d="M56.6038 72.4528H54.3396V74.717H56.6038V72.4528Z" fill="black"/>
<path d="M58.8679 72.4528H56.6038V74.717H58.8679V72.4528Z" fill="black"/>
<path d="M61.1321 72.4528H58.8679V74.717H61.1321V72.4528Z" fill="black"/>
<path d="M70.1887 72.4528H67.9245V74.717H70.1887V72.4528Z" fill="black"/>
<path d="M72.4528 72.4528H70.1887V74.717H72.4528V72.4528Z" fill="black"/>
<path d="M81.5094 72.4528H79.2453V74.717H81.5094V72.4528Z" fill="black"/>
<path d="M83.7736 72.4528H81.5094V74.717H83.7736V72.4528Z" fill="black"/>
<path d="M88.3019 72.4528H86.0377V74.717H88.3019V72.4528Z" fill="black"/>
<path d="M90.566 72.4528H88.3019V74.717H90.566V72.4528Z" fill="black"/>
<path d="M92.8302 72.4528H90.566V74.717H92.8302V72.4528Z" fill="black"/>
<path d="M113.208 72.4528H110.943V74.717H113.208V72.4528Z" fill="black"/>
<path d="M115.472 72.4528H113.208V74.717H115.472V72.4528Z" fill="black"/>
<path d="M2.26415 74.717H0V76.9811H2.26415V74.717Z" fill="black"/>
<path d="M9.0566 74.717H6.79245V76.9811H9.0566V74.717Z" fill="black"/>
<path d="M11.3208 74.717H9.0566V76.9811H11.3208V74.717Z" fill="black"/>
<path d="M18.1132 74.717H15.8491V76.9811H18.1132V74.717Z" fill="black"/>
<path d="M20.3774 74.717H18.1132V76.9811H20.3774V74.717Z" fill="black"/>
<path d="M22.6415 74.717H20.3774V76.9811H22.6415V74.717Z" fill="black"/>
<path d="M24.9057 74.717H22.6415V76.9811H24.9057V74.717Z" fill="black"/>
<path d="M27.1698 74.717H24.9057V76.9811H27.1698V74.717Z" fill="black"/>
<path d="M33.9623 74.717H31.6981V76.9811H33.9623V74.717Z" fill="black"/>
<path d="M38.4906 74.717H36.2264V76.9811H38.4906V74.717Z" fill="black"/>
<path d="M43.0189 74.717H40.7547V76.9811H43.0189V74.717Z" fill="black"/>
<path d="M47.5472 74.717H45.283V76.9811H47.5472V74.717Z" fill="black"/>
<path d="M56.6038 74.717H54.3396V76.9811H56.6038V74.717Z" fill="black"/>
<path d="M58.8679 74.717H56.6038V76.9811H58.8679V74.717Z" fill="black"/>
<path d="M63.3962 74.717H61.1321V76.9811H63.3962V74.717Z" fill="black"/>
<path d="M67.9245 74.717H65.6604V76.9811H67.9245V74.717Z" fill="black"/>
<path d="M74.717 74.717H72.4528V76.9811H74.717V74.717Z" fill="black"/>
<path d="M90.566 74.717H88.3019V76.9811H90.566V74.717Z" fill="black"/>
<path d="M99.6226 74.717H97.3585V76.9811H99.6226V74.717Z" fill="black"/>
<path d="M104.151 74.717H101.887V76.9811H104.151V74.717Z" fill="black"/>
<path d="M106.415 74.717H104.151V76.9811H106.415V74.717Z" fill="black"/>
<path d="M115.472 74.717H113.208V76.9811H115.472V74.717Z" fill="black"/>
<path d="M117.736 74.717H115.472V76.9811H117.736V74.717Z" fill="black"/>
<path d="M120 74.717H117.736V76.9811H120V74.717Z" fill="black"/>
<path d="M2.26415 76.9811H0V79.2453H2.26415V76.9811Z" fill="black"/>
<path d="M4.5283 76.9811H2.26415V79.2453H4.5283V76.9811Z" fill="black"/>
<path d="M6.79245 76.9811H4.5283V79.2453H6.79245V76.9811Z" fill="black"/>
<path d="M9.0566 76.9811H6.79245V79.2453H9.0566V76.9811Z" fill="black"/>
<path d="M11.3208 76.9811H9.0566V79.2453H11.3208V76.9811Z" fill="black"/>
<path d="M15.8491 76.9811H13.5849V79.2453H15.8491V76.9811Z" fill="black"/>
<path d="M22.6415 76.9811H20.3774V79.2453H22.6415V76.9811Z" fill="black"/>
<path d="M27.1698 76.9811H24.9057V79.2453H27.1698V76.9811Z" fill="black"/>
<path d="M29.434 76.9811H27.1698V79.2453H29.434V76.9811Z" fill="black"/>
<path d="M33.9623 76.9811H31.6981V79.2453H33.9623V76.9811Z" fill="black"/>
<path d="M38.4906 76.9811H36.2264V79.2453H38.4906V76.9811Z" fill="black"/>
<path d="M40.7547 76.9811H38.4906V79.2453H40.7547V76.9811Z" fill="black"/>
<path d="M45.283 76.9811H43.0189V79.2453H45.283V76.9811Z" fill="black"/>
<path d="M47.5472 76.9811H45.283V79.2453H47.5472V76.9811Z" fill="black"/>
<path d="M49.8113 76.9811H47.5472V79.2453H49.8113V76.9811Z" fill="black"/>
<path d="M63.3962 76.9811H61.1321V79.2453H63.3962V76.9811Z" fill="black"/>
<path d="M65.6604 76.9811H63.3962V79.2453H65.6604V76.9811Z" fill="black"/>
<path d="M67.9245 76.9811H65.6604V79.2453H67.9245V76.9811Z" fill="black"/>
<path d="M72.4528 76.9811H70.1887V79.2453H72.4528V76.9811Z" fill="black"/>
<path d="M74.717 76.9811H72.4528V79.2453H74.717V76.9811Z" fill="black"/>
<path d="M79.2453 76.9811H76.9811V79.2453H79.2453V76.9811Z" fill="black"/>
<path d="M81.5094 76.9811H79.2453V79.2453H81.5094V76.9811Z" fill="black"/>
<path d="M83.7736 76.9811H81.5094V79.2453H83.7736V76.9811Z" fill="black"/>
<path d="M86.0377 76.9811H83.7736V79.2453H86.0377V76.9811Z" fill="black"/>
<path d="M95.0943 76.9811H92.8302V79.2453H95.0943V76.9811Z" fill="black"/>
<path d="M101.887 76.9811H99.6226V79.2453H101.887V76.9811Z" fill="black"/>
<path d="M110.943 76.9811H108.679V79.2453H110.943V76.9811Z" fill="black"/>
<path d="M115.472 76.9811H113.208V79.2453H115.472V76.9811Z" fill="black"/>
<path d="M117.736 76.9811H115.472V79.2453H117.736V76.9811Z" fill="black"/>
<path d="M2.26415 79.2453H0V81.5094H2.26415V79.2453Z" fill="black"/>
<path d="M4.5283 79.2453H2.26415V81.5094H4.5283V79.2453Z" fill="black"/>
<path d="M6.79245 79.2453H4.5283V81.5094H6.79245V79.2453Z" fill="black"/>
<path d="M9.0566 79.2453H6.79245V81.5094H9.0566V79.2453Z" fill="black"/>
<path d="M11.3208 79.2453H9.0566V81.5094H11.3208V79.2453Z" fill="black"/>
<path d="M18.1132 79.2453H15.8491V81.5094H18.1132V79.2453Z" fill="black"/>
<path d="M22.6415 79.2453H20.3774V81.5094H22.6415V79.2453Z" fill="black"/>
<path d="M24.9057 79.2453H22.6415V81.5094H24.9057V79.2453Z" fill="black"/>
<path d="M27.1698 79.2453H24.9057V81.5094H27.1698V79.2453Z" fill="black"/>
<path d="M29.434 79.2453H27.1698V81.5094H29.434V79.2453Z" fill="black"/>
<path d="M36.2264 79.2453H33.9623V81.5094H36.2264V79.2453Z" fill="black"/>
<path d="M38.4906 79.2453H36.2264V81.5094H38.4906V79.2453Z" fill="black"/>
<path d="M40.7547 79.2453H38.4906V81.5094H40.7547V79.2453Z" fill="black"/>
<path d="M49.8113 79.2453H47.5472V81.5094H49.8113V79.2453Z" fill="black"/>
<path d="M52.0755 79.2453H49.8113V81.5094H52.0755V79.2453Z" fill="black"/>
<path d="M54.3396 79.2453H52.0755V81.5094H54.3396V79.2453Z" fill="black"/>
<path d="M70.1887 79.2453H67.9245V81.5094H70.1887V79.2453Z" fill="black"/>
<path d="M72.4528 79.2453H70.1887V81.5094H72.4528V79.2453Z" fill="black"/>
<path d="M83.7736 79.2453H81.5094V81.5094H83.7736V79.2453Z" fill="black"/>
<path d="M86.0377 79.2453H83.7736V81.5094H86.0377V79.2453Z" fill="black"/>
<path d="M88.3019 79.2453H86.0377V81.5094H88.3019V79.2453Z" fill="black"/>
<path d="M90.566 79.2453H88.3019V81.5094H90.566V79.2453Z" fill="black"/>
<path d="M92.8302 79.2453H90.566V81.5094H92.8302V79.2453Z" fill="black"/>
<path d="M97.3585 79.2453H95.0943V81.5094H97.3585V79.2453Z" fill="black"/>
<path d="M104.151 79.2453H101.887V81.5094H104.151V79.2453Z" fill="black"/>
<path d="M106.415 79.2453H104.151V81.5094H106.415V79.2453Z" fill="black"/>
<path d="M115.472 79.2453H113.208V81.5094H115.472V79.2453Z" fill="black"/>
<path d="M117.736 79.2453H115.472V81.5094H117.736V79.2453Z" fill="black"/>
<path d="M120 79.2453H117.736V81.5094H120V79.2453Z" fill="black"/>
<path d="M4.5283 81.5094H2.26415V83.7736H4.5283V81.5094Z" fill="black"/>
<path d="M6.79245 81.5094H4.5283V83.7736H6.79245V81.5094Z" fill="black"/>
<path d="M11.3208 81.5094H9.0566V83.7736H11.3208V81.5094Z" fill="black"/>
<path d="M15.8491 81.5094H13.5849V83.7736H15.8491V81.5094Z" fill="black"/>
<path d="M18.1132 81.5094H15.8491V83.7736H18.1132V81.5094Z" fill="black"/>
<path d="M20.3774 81.5094H18.1132V83.7736H20.3774V81.5094Z" fill="black"/>
<path d="M24.9057 81.5094H22.6415V83.7736H24.9057V81.5094Z" fill="black"/>
<path d="M31.6981 81.5094H29.434V83.7736H31.6981V81.5094Z" fill="black"/>
<path d="M36.2264 81.5094H33.9623V83.7736H36.2264V81.5094Z" fill="black"/>
<path d="M43.0189 81.5094H40.7547V83.7736H43.0189V81.5094Z" fill="black"/>
<path d="M47.5472 81.5094H45.283V83.7736H47.5472V81.5094Z" fill="black"/>
<path d="M49.8113 81.5094H47.5472V83.7736H49.8113V81.5094Z" fill="black"/>
<path d="M52.0755 81.5094H49.8113V83.7736H52.0755V81.5094Z" fill="black"/>
<path d="M58.8679 81.5094H56.6038V83.7736H58.8679V81.5094Z" fill="black"/>
<path d="M61.1321 81.5094H58.8679V83.7736H61.1321V81.5094Z" fill="black"/>
<path d="M63.3962 81.5094H61.1321V83.7736H63.3962V81.5094Z" fill="black"/>
<path d="M65.6604 81.5094H63.3962V83.7736H65.6604V81.5094Z" fill="black"/>
<path d="M67.9245 81.5094H65.6604V83.7736H67.9245V81.5094Z" fill="black"/>
<path d="M70.1887 81.5094H67.9245V83.7736H70.1887V81.5094Z" fill="black"/>
<path d="M72.4528 81.5094H70.1887V83.7736H72.4528V81.5094Z" fill="black"/>
<path d="M74.717 81.5094H72.4528V83.7736H74.717V81.5094Z" fill="black"/>
<path d="M76.9811 81.5094H74.717V83.7736H76.9811V81.5094Z" fill="black"/>
<path d="M81.5094 81.5094H79.2453V83.7736H81.5094V81.5094Z" fill="black"/>
<path d="M83.7736 81.5094H81.5094V83.7736H83.7736V81.5094Z" fill="black"/>
<path d="M86.0377 81.5094H83.7736V83.7736H86.0377V81.5094Z" fill="black"/>
<path d="M88.3019 81.5094H86.0377V83.7736H88.3019V81.5094Z" fill="black"/>
<path d="M90.566 81.5094H88.3019V83.7736H90.566V81.5094Z" fill="black"/>
<path d="M92.8302 81.5094H90.566V83.7736H92.8302V81.5094Z" fill="black"/>
<path d="M95.0943 81.5094H92.8302V83.7736H95.0943V81.5094Z" fill="black"/>
<path d="M101.887 81.5094H99.6226V83.7736H101.887V81.5094Z" fill="black"/>
<path d="M104.151 81.5094H101.887V83.7736H104.151V81.5094Z" fill="black"/>
<path d="M120 81.5094H117.736V83.7736H120V81.5094Z" fill="black"/>
<path d="M2.26415 83.7736H0V86.0377H2.26415V83.7736Z" fill="black"/>
<path d="M6.79245 83.7736H4.5283V86.0377H6.79245V83.7736Z" fill="black"/>
<path d="M9.0566 83.7736H6.79245V86.0377H9.0566V83.7736Z" fill="black"/>
<path d="M13.5849 83.7736H11.3208V86.0377H13.5849V83.7736Z" fill="black"/>
<path d="M22.6415 83.7736H20.3774V86.0377H22.6415V83.7736Z" fill="black"/>
<path d="M24.9057 83.7736H22.6415V86.0377H24.9057V83.7736Z" fill="black"/>
<path d="M29.434 83.7736H27.1698V86.0377H29.434V83.7736Z" fill="black"/>
<path d="M33.9623 83.7736H31.6981V86.0377H33.9623V83.7736Z" fill="black"/>
<path d="M38.4906 83.7736H36.2264V86.0377H38.4906V83.7736Z" fill="black"/>
<path d="M40.7547 83.7736H38.4906V86.0377H40.7547V83.7736Z" fill="black"/>
<path d="M47.5472 83.7736H45.283V86.0377H47.5472V83.7736Z" fill="black"/>
<path d="M49.8113 83.7736H47.5472V86.0377H49.8113V83.7736Z" fill="black"/>
<path d="M61.1321 83.7736H58.8679V86.0377H61.1321V83.7736Z" fill="black"/>
<path d="M63.3962 83.7736H61.1321V86.0377H63.3962V83.7736Z" fill="black"/>
<path d="M65.6604 83.7736H63.3962V86.0377H65.6604V83.7736Z" fill="black"/>
<path d="M76.9811 83.7736H74.717V86.0377H76.9811V83.7736Z" fill="black"/>
<path d="M79.2453 83.7736H76.9811V86.0377H79.2453V83.7736Z" fill="black"/>
<path d="M81.5094 83.7736H79.2453V86.0377H81.5094V83.7736Z" fill="black"/>
<path d="M86.0377 83.7736H83.7736V86.0377H86.0377V83.7736Z" fill="black"/>
<path d="M90.566 83.7736H88.3019V86.0377H90.566V83.7736Z" fill="black"/>
<path d="M92.8302 83.7736H90.566V86.0377H92.8302V83.7736Z" fill="black"/>
<path d="M101.887 83.7736H99.6226V86.0377H101.887V83.7736Z" fill="black"/>
<path d="M113.208 83.7736H110.943V86.0377H113.208V83.7736Z" fill="black"/>
<path d="M115.472 83.7736H113.208V86.0377H115.472V83.7736Z" fill="black"/>
<path d="M117.736 83.7736H115.472V86.0377H117.736V83.7736Z" fill="black"/>
<path d="M120 83.7736H117.736V86.0377H120V83.7736Z" fill="black"/>
<path d="M4.5283 86.0377H2.26415V88.3019H4.5283V86.0377Z" fill="black"/>
<path d="M6.79245 86.0377H4.5283V88.3019H6.79245V86.0377Z" fill="black"/>
<path d="M9.0566 86.0377H6.79245V88.3019H9.0566V86.0377Z" fill="black"/>
<path d="M15.8491 86.0377H13.5849V88.3019H15.8491V86.0377Z" fill="black"/>
<path d="M20.3774 86.0377H18.1132V88.3019H20.3774V86.0377Z" fill="black"/>
<path d="M29.434 86.0377H27.1698V88.3019H29.434V86.0377Z" fill="black"/>
<path d="M31.6981 86.0377H29.434V88.3019H31.6981V86.0377Z" fill="black"/>
<path d="M33.9623 86.0377H31.6981V88.3019H33.9623V86.0377Z" fill="black"/>
<path d="M38.4906 86.0377H36.2264V88.3019H38.4906V86.0377Z" fill="black"/>
<path d="M45.283 86.0377H43.0189V88.3019H45.283V86.0377Z" fill="black"/>
<path d="M47.5472 86.0377H45.283V88.3019H47.5472V86.0377Z" fill="black"/>
<path d="M52.0755 86.0377H49.8113V88.3019H52.0755V86.0377Z" fill="black"/>
<path d="M54.3396 86.0377H52.0755V88.3019H54.3396V86.0377Z" fill="black"/>
<path d="M56.6038 86.0377H54.3396V88.3019H56.6038V86.0377Z" fill="black"/>
<path d="M58.8679 86.0377H56.6038V88.3019H58.8679V86.0377Z" fill="black"/>
<path d="M61.1321 86.0377H58.8679V88.3019H61.1321V86.0377Z" fill="black"/>
<path d="M63.3962 86.0377H61.1321V88.3019H63.3962V86.0377Z" fill="black"/>
<path d="M67.9245 86.0377H65.6604V88.3019H67.9245V86.0377Z" fill="black"/>
<path d="M72.4528 86.0377H70.1887V88.3019H72.4528V86.0377Z" fill="black"/>
<path d="M74.717 86.0377H72.4528V88.3019H74.717V86.0377Z" fill="black"/>
<path d="M81.5094 86.0377H79.2453V88.3019H81.5094V86.0377Z" fill="black"/>
<path d="M83.7736 86.0377H81.5094V88.3019H83.7736V86.0377Z" fill="black"/>
<path d="M88.3019 86.0377H86.0377V88.3019H88.3019V86.0377Z" fill="black"/>
<path d="M97.3585 86.0377H95.0943V88.3019H97.3585V86.0377Z" fill="black"/>
<path d="M99.6226 86.0377H97.3585V88.3019H99.6226V86.0377Z" fill="black"/>
<path d="M101.887 86.0377H99.6226V88.3019H101.887V86.0377Z" fill="black"/>
<path d="M106.415 86.0377H104.151V88.3019H106.415V86.0377Z" fill="black"/>
<path d="M113.208 86.0377H110.943V88.3019H113.208V86.0377Z" fill="black"/>
<path d="M115.472 86.0377H113.208V88.3019H115.472V86.0377Z" fill="black"/>
<path d="M117.736 86.0377H115.472V88.3019H117.736V86.0377Z" fill="black"/>
<path d="M120 86.0377H117.736V88.3019H120V86.0377Z" fill="black"/>
<path d="M2.26415 88.3019H0V90.566H2.26415V88.3019Z" fill="black"/>
<path d="M6.79245 88.3019H4.5283V90.566H6.79245V88.3019Z" fill="black"/>
<path d="M18.1132 88.3019H15.8491V90.566H18.1132V88.3019Z" fill="black"/>
<path d="M20.3774 88.3019H18.1132V90.566H20.3774V88.3019Z" fill="black"/>
<path d="M24.9057 88.3019H22.6415V90.566H24.9057V88.3019Z" fill="black"/>
<path d="M31.6981 88.3019H29.434V90.566H31.6981V88.3019Z" fill="black"/>
<path d="M33.9623 88.3019H31.6981V90.566H33.9623V88.3019Z" fill="black"/>
<path d="M36.2264 88.3019H33.9623V90.566H36.2264V88.3019Z" fill="black"/>
<path d="M38.4906 88.3019H36.2264V90.566H38.4906V88.3019Z" fill="black"/>
<path d="M43.0189 88.3019H40.7547V90.566H43.0189V88.3019Z" fill="black"/>
<path d="M61.1321 88.3019H58.8679V90.566H61.1321V88.3019Z" fill="black"/>
<path d="M70.1887 88.3019H67.9245V90.566H70.1887V88.3019Z" fill="black"/>
<path d="M72.4528 88.3019H70.1887V90.566H72.4528V88.3019Z" fill="black"/>
<path d="M74.717 88.3019H72.4528V90.566H74.717V88.3019Z" fill="black"/>
<path d="M76.9811 88.3019H74.717V90.566H76.9811V88.3019Z" fill="black"/>
<path d="M81.5094 88.3019H79.2453V90.566H81.5094V88.3019Z" fill="black"/>
<path d="M83.7736 88.3019H81.5094V90.566H83.7736V88.3019Z" fill="black"/>
<path d="M88.3019 88.3019H86.0377V90.566H88.3019V88.3019Z" fill="black"/>
<path d="M90.566 88.3019H88.3019V90.566H90.566V88.3019Z" fill="black"/>
<path d="M92.8302 88.3019H90.566V90.566H92.8302V88.3019Z" fill="black"/>
<path d="M95.0943 88.3019H92.8302V90.566H95.0943V88.3019Z" fill="black"/>
<path d="M101.887 88.3019H99.6226V90.566H101.887V88.3019Z" fill="black"/>
<path d="M104.151 88.3019H101.887V90.566H104.151V88.3019Z" fill="black"/>
<path d="M106.415 88.3019H104.151V90.566H106.415V88.3019Z" fill="black"/>
<path d="M110.943 88.3019H108.679V90.566H110.943V88.3019Z" fill="black"/>
<path d="M117.736 88.3019H115.472V90.566H117.736V88.3019Z" fill="black"/>
<path d="M2.26415 90.566H0V92.8302H2.26415V90.566Z" fill="black"/>
<path d="M15.8491 90.566H13.5849V92.8302H15.8491V90.566Z" fill="black"/>
<path d="M24.9057 90.566H22.6415V92.8302H24.9057V90.566Z" fill="black"/>
<path d="M29.434 90.566H27.1698V92.8302H29.434V90.566Z" fill="black"/>
<path d="M31.6981 90.566H29.434V92.8302H31.6981V90.566Z" fill="black"/>
<path d="M36.2264 90.566H33.9623V92.8302H36.2264V90.566Z" fill="black"/>
<path d="M38.4906 90.566H36.2264V92.8302H38.4906V90.566Z" fill="black"/>
<path d="M40.7547 90.566H38.4906V92.8302H40.7547V90.566Z" fill="black"/>
<path d="M43.0189 90.566H40.7547V92.8302H43.0189V90.566Z" fill="black"/>
<path d="M45.283 90.566H43.0189V92.8302H45.283V90.566Z" fill="black"/>
<path d="M47.5472 90.566H45.283V92.8302H47.5472V90.566Z" fill="black"/>
<path d="M56.6038 90.566H54.3396V92.8302H56.6038V90.566Z" fill="black"/>
<path d="M58.8679 90.566H56.6038V92.8302H58.8679V90.566Z" fill="black"/>
<path d="M61.1321 90.566H58.8679V92.8302H61.1321V90.566Z" fill="black"/>
<path d="M65.6604 90.566H63.3962V92.8302H65.6604V90.566Z" fill="black"/>
<path d="M67.9245 90.566H65.6604V92.8302H67.9245V90.566Z" fill="black"/>
<path d="M70.1887 90.566H67.9245V92.8302H70.1887V90.566Z" fill="black"/>
<path d="M72.4528 90.566H70.1887V92.8302H72.4528V90.566Z" fill="black"/>
<path d="M74.717 90.566H72.4528V92.8302H74.717V90.566Z" fill="black"/>
<path d="M76.9811 90.566H74.717V92.8302H76.9811V90.566Z" fill="black"/>
<path d="M81.5094 90.566H79.2453V92.8302H81.5094V90.566Z" fill="black"/>
<path d="M83.7736 90.566H81.5094V92.8302H83.7736V90.566Z" fill="black"/>
<path d="M97.3585 90.566H95.0943V92.8302H97.3585V90.566Z" fill="black"/>
<path d="M99.6226 90.566H97.3585V92.8302H99.6226V90.566Z" fill="black"/>
<path d="M104.151 90.566H101.887V92.8302H104.151V90.566Z" fill="black"/>
<path d="M106.415 90.566H104.151V92.8302H106.415V90.566Z" fill="black"/>
<path d="M113.208 90.566H110.943V92.8302H113.208V90.566Z" fill="black"/>
<path d="M4.5283 92.8302H2.26415V95.0943H4.5283V92.8302Z" fill="black"/>
<path d="M6.79245 92.8302H4.5283V95.0943H6.79245V92.8302Z" fill="black"/>
<path d="M22.6415 92.8302H20.3774V95.0943H22.6415V92.8302Z" fill="black"/>
<path d="M29.434 92.8302H27.1698V95.0943H29.434V92.8302Z" fill="black"/>
<path d="M36.2264 92.8302H33.9623V95.0943H36.2264V92.8302Z" fill="black"/>
<path d="M40.7547 92.8302H38.4906V95.0943H40.7547V92.8302Z" fill="black"/>
<path d="M43.0189 92.8302H40.7547V95.0943H43.0189V92.8302Z" fill="black"/>
<path d="M54.3396 92.8302H52.0755V95.0943H54.3396V92.8302Z" fill="black"/>
<path d="M56.6038 92.8302H54.3396V95.0943H56.6038V92.8302Z" fill="black"/>
<path d="M65.6604 92.8302H63.3962V95.0943H65.6604V92.8302Z" fill="black"/>
<path d="M74.717 92.8302H72.4528V95.0943H74.717V92.8302Z" fill="black"/>
<path d="M83.7736 92.8302H81.5094V95.0943H83.7736V92.8302Z" fill="black"/>
<path d="M88.3019 92.8302H86.0377V95.0943H88.3019V92.8302Z" fill="black"/>
<path d="M95.0943 92.8302H92.8302V95.0943H95.0943V92.8302Z" fill="black"/>
<path d="M106.415 92.8302H104.151V95.0943H106.415V92.8302Z" fill="black"/>
<path d="M108.679 92.8302H106.415V95.0943H108.679V92.8302Z" fill="black"/>
<path d="M113.208 92.8302H110.943V95.0943H113.208V92.8302Z" fill="black"/>
<path d="M115.472 92.8302H113.208V95.0943H115.472V92.8302Z" fill="black"/>
<path d="M120 92.8302H117.736V95.0943H120V92.8302Z" fill="black"/>
<path d="M2.26415 95.0943H0V97.3585H2.26415V95.0943Z" fill="black"/>
<path d="M4.5283 95.0943H2.26415V97.3585H4.5283V95.0943Z" fill="black"/>
<path d="M9.0566 95.0943H6.79245V97.3585H9.0566V95.0943Z" fill="black"/>
<path d="M11.3208 95.0943H9.0566V97.3585H11.3208V95.0943Z" fill="black"/>
<path d="M13.5849 95.0943H11.3208V97.3585H13.5849V95.0943Z" fill="black"/>
<path d="M15.8491 95.0943H13.5849V97.3585H15.8491V95.0943Z" fill="black"/>
<path d="M18.1132 95.0943H15.8491V97.3585H18.1132V95.0943Z" fill="black"/>
<path d="M27.1698 95.0943H24.9057V97.3585H27.1698V95.0943Z" fill="black"/>
<path d="M33.9623 95.0943H31.6981V97.3585H33.9623V95.0943Z" fill="black"/>
<path d="M40.7547 95.0943H38.4906V97.3585H40.7547V95.0943Z" fill="black"/>
<path d="M43.0189 95.0943H40.7547V97.3585H43.0189V95.0943Z" fill="black"/>
<path d="M45.283 95.0943H43.0189V97.3585H45.283V95.0943Z" fill="black"/>
<path d="M56.6038 95.0943H54.3396V97.3585H56.6038V95.0943Z" fill="black"/>
<path d="M58.8679 95.0943H56.6038V97.3585H58.8679V95.0943Z" fill="black"/>
<path d="M72.4528 95.0943H70.1887V97.3585H72.4528V95.0943Z" fill="black"/>
<path d="M74.717 95.0943H72.4528V97.3585H74.717V95.0943Z" fill="black"/>
<path d="M81.5094 95.0943H79.2453V97.3585H81.5094V95.0943Z" fill="black"/>
<path d="M86.0377 95.0943H83.7736V97.3585H86.0377V95.0943Z" fill="black"/>
<path d="M90.566 95.0943H88.3019V97.3585H90.566V95.0943Z" fill="black"/>
<path d="M92.8302 95.0943H90.566V97.3585H92.8302V95.0943Z" fill="black"/>
<path d="M99.6226 95.0943H97.3585V97.3585H99.6226V95.0943Z" fill="black"/>
<path d="M101.887 95.0943H99.6226V97.3585H101.887V95.0943Z" fill="black"/>
<path d="M104.151 95.0943H101.887V97.3585H104.151V95.0943Z" fill="black"/>
<path d="M106.415 95.0943H104.151V97.3585H106.415V95.0943Z" fill="black"/>
<path d="M108.679 95.0943H106.415V97.3585H108.679V95.0943Z" fill="black"/>
<path d="M110.943 95.0943H108.679V97.3585H110.943V95.0943Z" fill="black"/>
<path d="M113.208 95.0943H110.943V97.3585H113.208V95.0943Z" fill="black"/>
<path d="M117.736 95.0943H115.472V97.3585H117.736V95.0943Z" fill="black"/>
<path d="M120 95.0943H117.736V97.3585H120V95.0943Z" fill="black"/>
<path d="M4.5283 97.3585H2.26415V99.6226H4.5283V97.3585Z" fill="black"/>
<path d="M6.79245 97.3585H4.5283V99.6226H6.79245V97.3585Z" fill="black"/>
<path d="M18.1132 97.3585H15.8491V99.6226H18.1132V97.3585Z" fill="black"/>
<path d="M29.434 97.3585H27.1698V99.6226H29.434V97.3585Z" fill="black"/>
<path d="M31.6981 97.3585H29.434V99.6226H31.6981V97.3585Z" fill="black"/>
<path d="M33.9623 97.3585H31.6981V99.6226H33.9623V97.3585Z" fill="black"/>
<path d="M36.2264 97.3585H33.9623V99.6226H36.2264V97.3585Z" fill="black"/>
<path d="M38.4906 97.3585H36.2264V99.6226H38.4906V97.3585Z" fill="black"/>
<path d="M40.7547 97.3585H38.4906V99.6226H40.7547V97.3585Z" fill="black"/>
<path d="M45.283 97.3585H43.0189V99.6226H45.283V97.3585Z" fill="black"/>
<path d="M52.0755 97.3585H49.8113V99.6226H52.0755V97.3585Z" fill="black"/>
<path d="M54.3396 97.3585H52.0755V99.6226H54.3396V97.3585Z" fill="black"/>
<path d="M56.6038 97.3585H54.3396V99.6226H56.6038V97.3585Z" fill="black"/>
<path d="M58.8679 97.3585H56.6038V99.6226H58.8679V97.3585Z" fill="black"/>
<path d="M65.6604 97.3585H63.3962V99.6226H65.6604V97.3585Z" fill="black"/>
<path d="M74.717 97.3585H72.4528V99.6226H74.717V97.3585Z" fill="black"/>
<path d="M83.7736 97.3585H81.5094V99.6226H83.7736V97.3585Z" fill="black"/>
<path d="M88.3019 97.3585H86.0377V99.6226H88.3019V97.3585Z" fill="black"/>
<path d="M90.566 97.3585H88.3019V99.6226H90.566V97.3585Z" fill="black"/>
<path d="M97.3585 97.3585H95.0943V99.6226H97.3585V97.3585Z" fill="black"/>
<path d="M99.6226 97.3585H97.3585V99.6226H99.6226V97.3585Z" fill="black"/>
<path d="M104.151 97.3585H101.887V99.6226H104.151V97.3585Z" fill="black"/>
<path d="M110.943 97.3585H108.679V99.6226H110.943V97.3585Z" fill="black"/>
<path d="M113.208 97.3585H110.943V99.6226H113.208V97.3585Z" fill="black"/>
<path d="M120 97.3585H117.736V99.6226H120V97.3585Z" fill="black"/>
<path d="M9.0566 99.6226H6.79245V101.887H9.0566V99.6226Z" fill="black"/>
<path d="M15.8491 99.6226H13.5849V101.887H15.8491V99.6226Z" fill="black"/>
<path d="M20.3774 99.6226H18.1132V101.887H20.3774V99.6226Z" fill="black"/>
<path d="M22.6415 99.6226H20.3774V101.887H22.6415V99.6226Z" fill="black"/>
<path d="M31.6981 99.6226H29.434V101.887H31.6981V99.6226Z" fill="black"/>
<path d="M36.2264 99.6226H33.9623V101.887H36.2264V99.6226Z" fill="black"/>
<path d="M38.4906 99.6226H36.2264V101.887H38.4906V99.6226Z" fill="black"/>
<path d="M40.7547 99.6226H38.4906V101.887H40.7547V99.6226Z" fill="black"/>
<path d="M47.5472 99.6226H45.283V101.887H47.5472V99.6226Z" fill="black"/>
<path d="M49.8113 99.6226H47.5472V101.887H49.8113V99.6226Z" fill="black"/>
<path d="M52.0755 99.6226H49.8113V101.887H52.0755V99.6226Z" fill="black"/>
<path d="M56.6038 99.6226H54.3396V101.887H56.6038V99.6226Z" fill="black"/>
<path d="M58.8679 99.6226H56.6038V101.887H58.8679V99.6226Z" fill="black"/>
<path d="M61.1321 99.6226H58.8679V101.887H61.1321V99.6226Z" fill="black"/>
<path d="M63.3962 99.6226H61.1321V101.887H63.3962V99.6226Z" fill="black"/>
<path d="M65.6604 99.6226H63.3962V101.887H65.6604V99.6226Z" fill="black"/>
<path d="M67.9245 99.6226H65.6604V101.887H67.9245V99.6226Z" fill="black"/>
<path d="M72.4528 99.6226H70.1887V101.887H72.4528V99.6226Z" fill="black"/>
<path d="M76.9811 99.6226H74.717V101.887H76.9811V99.6226Z" fill="black"/>
<path d="M79.2453 99.6226H76.9811V101.887H79.2453V99.6226Z" fill="black"/>
<path d="M83.7736 99.6226H81.5094V101.887H83.7736V99.6226Z" fill="black"/>
<path d="M86.0377 99.6226H83.7736V101.887H86.0377V99.6226Z" fill="black"/>
<path d="M90.566 99.6226H88.3019V101.887H90.566V99.6226Z" fill="black"/>
<path d="M92.8302 99.6226H90.566V101.887H92.8302V99.6226Z" fill="black"/>
<path d="M97.3585 99.6226H95.0943V101.887H97.3585V99.6226Z" fill="black"/>
<path d="M101.887 99.6226H99.6226V101.887H101.887V99.6226Z" fill="black"/>
<path d="M104.151 99.6226H101.887V101.887H104.151V99.6226Z" fill="black"/>
<path d="M106.415 99.6226H104.151V101.887H106.415V99.6226Z" fill="black"/>
<path d="M108.679 99.6226H106.415V101.887H108.679V99.6226Z" fill="black"/>
<path d="M110.943 99.6226H108.679V101.887H110.943V99.6226Z" fill="black"/>
<path d="M115.472 99.6226H113.208V101.887H115.472V99.6226Z" fill="black"/>
<path d="M120 99.6226H117.736V101.887H120V99.6226Z" fill="black"/>
<path d="M20.3774 101.887H18.1132V104.151H20.3774V101.887Z" fill="black"/>
<path d="M31.6981 101.887H29.434V104.151H31.6981V101.887Z" fill="black"/>
<path d="M33.9623 101.887H31.6981V104.151H33.9623V101.887Z" fill="black"/>
<path d="M36.2264 101.887H33.9623V104.151H36.2264V101.887Z" fill="black"/>
<path d="M40.7547 101.887H38.4906V104.151H40.7547V101.887Z" fill="black"/>
<path d="M45.283 101.887H43.0189V104.151H45.283V101.887Z" fill="black"/>
<path d="M49.8113 101.887H47.5472V104.151H49.8113V101.887Z" fill="black"/>
<path d="M52.0755 101.887H49.8113V104.151H52.0755V101.887Z" fill="black"/>
<path d="M56.6038 101.887H54.3396V104.151H56.6038V101.887Z" fill="black"/>
<path d="M65.6604 101.887H63.3962V104.151H65.6604V101.887Z" fill="black"/>
<path d="M74.717 101.887H72.4528V104.151H74.717V101.887Z" fill="black"/>
<path d="M81.5094 101.887H79.2453V104.151H81.5094V101.887Z" fill="black"/>
<path d="M101.887 101.887H99.6226V104.151H101.887V101.887Z" fill="black"/>
<path d="M110.943 101.887H108.679V104.151H110.943V101.887Z" fill="black"/>
<path d="M117.736 101.887H115.472V104.151H117.736V101.887Z" fill="black"/>
<path d="M120 101.887H117.736V104.151H120V101.887Z" fill="black"/>
<path d="M22.6415 104.151H20.3774V106.415H22.6415V104.151Z" fill="black"/>
<path d="M24.9057 104.151H22.6415V106.415H24.9057V104.151Z" fill="black"/>
<path d="M33.9623 104.151H31.6981V106.415H33.9623V104.151Z" fill="black"/>
<path d="M36.2264 104.151H33.9623V106.415H36.2264V104.151Z" fill="black"/>
<path d="M38.4906 104.151H36.2264V106.415H38.4906V104.151Z" fill="black"/>
<path d="M40.7547 104.151H38.4906V106.415H40.7547V104.151Z" fill="black"/>
<path d="M45.283 104.151H43.0189V106.415H45.283V104.151Z" fill="black"/>
<path d="M49.8113 104.151H47.5472V106.415H49.8113V104.151Z" fill="black"/>
<path d="M52.0755 104.151H49.8113V106.415H52.0755V104.151Z" fill="black"/>
<path d="M56.6038 104.151H54.3396V106.415H56.6038V104.151Z" fill="black"/>
<path d="M61.1321 104.151H58.8679V106.415H61.1321V104.151Z" fill="black"/>
<path d="M65.6604 104.151H63.3962V106.415H65.6604V104.151Z" fill="black"/>
<path d="M74.717 104.151H72.4528V106.415H74.717V104.151Z" fill="black"/>
<path d="M79.2453 104.151H76.9811V106.415H79.2453V104.151Z" fill="black"/>
<path d="M83.7736 104.151H81.5094V106.415H83.7736V104.151Z" fill="black"/>
<path d="M86.0377 104.151H83.7736V106.415H86.0377V104.151Z" fill="black"/>
<path d="M92.8302 104.151H90.566V106.415H92.8302V104.151Z" fill="black"/>
<path d="M101.887 104.151H99.6226V106.415H101.887V104.151Z" fill="black"/>
<path d="M106.415 104.151H104.151V106.415H106.415V104.151Z" fill="black"/>
<path d="M110.943 104.151H108.679V106.415H110.943V104.151Z" fill="black"/>
<path d="M113.208 104.151H110.943V106.415H113.208V104.151Z" fill="black"/>
<path d="M115.472 104.151H113.208V106.415H115.472V104.151Z" fill="black"/>
<path d="M117.736 104.151H115.472V106.415H117.736V104.151Z" fill="black"/>
<path d="M20.3774 106.415H18.1132V108.679H20.3774V106.415Z" fill="black"/>
<path d="M22.6415 106.415H20.3774V108.679H22.6415V106.415Z" fill="black"/>
<path d="M27.1698 106.415H24.9057V108.679H27.1698V106.415Z" fill="black"/>
<path d="M36.2264 106.415H33.9623V108.679H36.2264V106.415Z" fill="black"/>
<path d="M40.7547 106.415H38.4906V108.679H40.7547V106.415Z" fill="black"/>
<path d="M47.5472 106.415H45.283V108.679H47.5472V106.415Z" fill="black"/>
<path d="M49.8113 106.415H47.5472V108.679H49.8113V106.415Z" fill="black"/>
<path d="M52.0755 106.415H49.8113V108.679H52.0755V106.415Z" fill="black"/>
<path d="M56.6038 106.415H54.3396V108.679H56.6038V106.415Z" fill="black"/>
<path d="M65.6604 106.415H63.3962V108.679H65.6604V106.415Z" fill="black"/>
<path d="M67.9245 106.415H65.6604V108.679H67.9245V106.415Z" fill="black"/>
<path d="M72.4528 106.415H70.1887V108.679H72.4528V106.415Z" fill="black"/>
<path d="M79.2453 106.415H76.9811V108.679H79.2453V106.415Z" fill="black"/>
<path d="M81.5094 106.415H79.2453V108.679H81.5094V106.415Z" fill="black"/>
<path d="M83.7736 106.415H81.5094V108.679H83.7736V106.415Z" fill="black"/>
<path d="M92.8302 106.415H90.566V108.679H92.8302V106.415Z" fill="black"/>
<path d="M101.887 106.415H99.6226V108.679H101.887V106.415Z" fill="black"/>
<path d="M110.943 106.415H108.679V108.679H110.943V106.415Z" fill="black"/>
<path d="M115.472 106.415H113.208V108.679H115.472V106.415Z" fill="black"/>
<path d="M24.9057 108.679H22.6415V110.943H24.9057V108.679Z" fill="black"/>
<path d="M29.434 108.679H27.1698V110.943H29.434V108.679Z" fill="black"/>
<path d="M31.6981 108.679H29.434V110.943H31.6981V108.679Z" fill="black"/>
<path d="M36.2264 108.679H33.9623V110.943H36.2264V108.679Z" fill="black"/>
<path d="M38.4906 108.679H36.2264V110.943H38.4906V108.679Z" fill="black"/>
<path d="M49.8113 108.679H47.5472V110.943H49.8113V108.679Z" fill="black"/>
<path d="M56.6038 108.679H54.3396V110.943H56.6038V108.679Z" fill="black"/>
<path d="M58.8679 108.679H56.6038V110.943H58.8679V108.679Z" fill="black"/>
<path d="M61.1321 108.679H58.8679V110.943H61.1321V108.679Z" fill="black"/>
<path d="M63.3962 108.679H61.1321V110.943H63.3962V108.679Z" fill="black"/>
<path d="M65.6604 108.679H63.3962V110.943H65.6604V108.679Z" fill="black"/>
<path d="M67.9245 108.679H65.6604V110.943H67.9245V108.679Z" fill="black"/>
<path d="M70.1887 108.679H67.9245V110.943H70.1887V108.679Z" fill="black"/>
<path d="M72.4528 108.679H70.1887V110.943H72.4528V108.679Z" fill="black"/>
<path d="M74.717 108.679H72.4528V110.943H74.717V108.679Z" fill="black"/>
<path d="M76.9811 108.679H74.717V110.943H76.9811V108.679Z" fill="black"/>
<path d="M81.5094 108.679H79.2453V110.943H81.5094V108.679Z" fill="black"/>
<path d="M83.7736 108.679H81.5094V110.943H83.7736V108.679Z" fill="black"/>
<path d="M90.566 108.679H88.3019V110.943H90.566V108.679Z" fill="black"/>
<path d="M92.8302 108.679H90.566V110.943H92.8302V108.679Z" fill="black"/>
<path d="M95.0943 108.679H92.8302V110.943H95.0943V108.679Z" fill="black"/>
<path d="M99.6226 108.679H97.3585V110.943H99.6226V108.679Z" fill="black"/>
<path d="M101.887 108.679H99.6226V110.943H101.887V108.679Z" fill="black"/>
<path d="M104.151 108.679H101.887V110.943H104.151V108.679Z" fill="black"/>
<path d="M106.415 108.679H104.151V110.943H106.415V108.679Z" fill="black"/>
<path d="M108.679 108.679H106.415V110.943H108.679V108.679Z" fill="black"/>
<path d="M110.943 108.679H108.679V110.943H110.943V108.679Z" fill="black"/>
<path d="M113.208 108.679H110.943V110.943H113.208V108.679Z" fill="black"/>
<path d="M117.736 108.679H115.472V110.943H117.736V108.679Z" fill="black"/>
<path d="M20.3774 110.943H18.1132V113.208H20.3774V110.943Z" fill="black"/>
<path d="M22.6415 110.943H20.3774V113.208H22.6415V110.943Z" fill="black"/>
<path d="M29.434 110.943H27.1698V113.208H29.434V110.943Z" fill="black"/>
<path d="M36.2264 110.943H33.9623V113.208H36.2264V110.943Z" fill="black"/>
<path d="M38.4906 110.943H36.2264V113.208H38.4906V110.943Z" fill="black"/>
<path d="M40.7547 110.943H38.4906V113.208H40.7547V110.943Z" fill="black"/>
<path d="M43.0189 110.943H40.7547V113.208H43.0189V110.943Z" fill="black"/>
<path d="M45.283 110.943H43.0189V113.208H45.283V110.943Z" fill="black"/>
<path d="M49.8113 110.943H47.5472V113.208H49.8113V110.943Z" fill="black"/>
<path d="M52.0755 110.943H49.8113V113.208H52.0755V110.943Z" fill="black"/>
<path d="M58.8679 110.943H56.6038V113.208H58.8679V110.943Z" fill="black"/>
<path d="M63.3962 110.943H61.1321V113.208H63.3962V110.943Z" fill="black"/>
<path d="M67.9245 110.943H65.6604V113.208H67.9245V110.943Z" fill="black"/>
<path d="M74.717 110.943H72.4528V113.208H74.717V110.943Z" fill="black"/>
<path d="M79.2453 110.943H76.9811V113.208H79.2453V110.943Z" fill="black"/>
<path d="M86.0377 110.943H83.7736V113.208H86.0377V110.943Z" fill="black"/>
<path d="M101.887 110.943H99.6226V113.208H101.887V110.943Z" fill="black"/>
<path d="M104.151 110.943H101.887V113.208H104.151V110.943Z" fill="black"/>
<path d="M106.415 110.943H104.151V113.208H106.415V110.943Z" fill="black"/>
<path d="M108.679 110.943H106.415V113.208H108.679V110.943Z" fill="black"/>
<path d="M110.943 110.943H108.679V113.208H110.943V110.943Z" fill="black"/>
<path d="M117.736 110.943H115.472V113.208H117.736V110.943Z" fill="black"/>
<path d="M27.1698 113.208H24.9057V115.472H27.1698V113.208Z" fill="black"/>
<path d="M29.434 113.208H27.1698V115.472H29.434V113.208Z" fill="black"/>
<path d="M31.6981 113.208H29.434V115.472H31.6981V113.208Z" fill="black"/>
<path d="M33.9623 113.208H31.6981V115.472H33.9623V113.208Z" fill="black"/>
<path d="M43.0189 113.208H40.7547V115.472H43.0189V113.208Z" fill="black"/>
<path d="M52.0755 113.208H49.8113V115.472H52.0755V113.208Z" fill="black"/>
<path d="M54.3396 113.208H52.0755V115.472H54.3396V113.208Z" fill="black"/>
<path d="M56.6038 113.208H54.3396V115.472H56.6038V113.208Z" fill="black"/>
<path d="M61.1321 113.208H58.8679V115.472H61.1321V113.208Z" fill="black"/>
<path d="M63.3962 113.208H61.1321V115.472H63.3962V113.208Z" fill="black"/>
<path d="M72.4528 113.208H70.1887V115.472H72.4528V113.208Z" fill="black"/>
<path d="M86.0377 113.208H83.7736V115.472H86.0377V113.208Z" fill="black"/>
<path d="M88.3019 113.208H86.0377V115.472H88.3019V113.208Z" fill="black"/>
<path d="M90.566 113.208H88.3019V115.472H90.566V113.208Z" fill="black"/>
<path d="M95.0943 113.208H92.8302V115.472H95.0943V113.208Z" fill="black"/>
<path d="M99.6226 113.208H97.3585V115.472H99.6226V113.208Z" fill="black"/>
<path d="M104.151 113.208H101.887V115.472H104.151V113.208Z" fill="black"/>
<path d="M110.943 113.208H108.679V115.472H110.943V113.208Z" fill="black"/>
<path d="M22.6415 115.472H20.3774V117.736H22.6415V115.472Z" fill="black"/>
<path d="M24.9057 115.472H22.6415V117.736H24.9057V115.472Z" fill="black"/>
<path d="M38.4906 115.472H36.2264V117.736H38.4906V115.472Z" fill="black"/>
<path d="M40.7547 115.472H38.4906V117.736H40.7547V115.472Z" fill="black"/>
<path d="M45.283 115.472H43.0189V117.736H45.283V115.472Z" fill="black"/>
<path d="M47.5472 115.472H45.283V117.736H47.5472V115.472Z" fill="black"/>
<path d="M49.8113 115.472H47.5472V117.736H49.8113V115.472Z" fill="black"/>
<path d="M56.6038 115.472H54.3396V117.736H56.6038V115.472Z" fill="black"/>
<path d="M58.8679 115.472H56.6038V117.736H58.8679V115.472Z" fill="black"/>
<path d="M61.1321 115.472H58.8679V117.736H61.1321V115.472Z" fill="black"/>
<path d="M63.3962 115.472H61.1321V117.736H63.3962V115.472Z" fill="black"/>
<path d="M67.9245 115.472H65.6604V117.736H67.9245V115.472Z" fill="black"/>
<path d="M74.717 115.472H72.4528V117.736H74.717V115.472Z" fill="black"/>
<path d="M76.9811 115.472H74.717V117.736H76.9811V115.472Z" fill="black"/>
<path d="M79.2453 115.472H76.9811V117.736H79.2453V115.472Z" fill="black"/>
<path d="M81.5094 115.472H79.2453V117.736H81.5094V115.472Z" fill="black"/>
<path d="M83.7736 115.472H81.5094V117.736H83.7736V115.472Z" fill="black"/>
<path d="M86.0377 115.472H83.7736V117.736H86.0377V115.472Z" fill="black"/>
<path d="M92.8302 115.472H90.566V117.736H92.8302V115.472Z" fill="black"/>
<path d="M95.0943 115.472H92.8302V117.736H95.0943V115.472Z" fill="black"/>
<path d="M99.6226 115.472H97.3585V117.736H99.6226V115.472Z" fill="black"/>
<path d="M117.736 115.472H115.472V117.736H117.736V115.472Z" fill="black"/>
<path d="M20.3774 117.736H18.1132V120H20.3774V117.736Z" fill="black"/>
<path d="M24.9057 117.736H22.6415V120H24.9057V117.736Z" fill="black"/>
<path d="M29.434 117.736H27.1698V120H29.434V117.736Z" fill="black"/>
<path d="M33.9623 117.736H31.6981V120H33.9623V117.736Z" fill="black"/>
<path d="M36.2264 117.736H33.9623V120H36.2264V117.736Z" fill="black"/>
<path d="M38.4906 117.736H36.2264V120H38.4906V117.736Z" fill="black"/>
<path d="M40.7547 117.736H38.4906V120H40.7547V117.736Z" fill="black"/>
<path d="M43.0189 117.736H40.7547V120H43.0189V117.736Z" fill="black"/>
<path d="M45.283 117.736H43.0189V120H45.283V117.736Z" fill="black"/>
<path d="M47.5472 117.736H45.283V120H47.5472V117.736Z" fill="black"/>
<path d="M49.8113 117.736H47.5472V120H49.8113V117.736Z" fill="black"/>
<path d="M52.0755 117.736H49.8113V120H52.0755V117.736Z" fill="black"/>
<path d="M56.6038 117.736H54.3396V120H56.6038V117.736Z" fill="black"/>
<path d="M58.8679 117.736H56.6038V120H58.8679V117.736Z" fill="black"/>
<path d="M61.1321 117.736H58.8679V120H61.1321V117.736Z" fill="black"/>
<path d="M67.9245 117.736H65.6604V120H67.9245V117.736Z" fill="black"/>
<path d="M70.1887 117.736H67.9245V120H70.1887V117.736Z" fill="black"/>
<path d="M74.717 117.736H72.4528V120H74.717V117.736Z" fill="black"/>
<path d="M76.9811 117.736H74.717V120H76.9811V117.736Z" fill="black"/>
<path d="M81.5094 117.736H79.2453V120H81.5094V117.736Z" fill="black"/>
<path d="M83.7736 117.736H81.5094V120H83.7736V117.736Z" fill="black"/>
<path d="M90.566 117.736H88.3019V120H90.566V117.736Z" fill="black"/>
<path d="M97.3585 117.736H95.0943V120H97.3585V117.736Z" fill="black"/>
<path d="M99.6226 117.736H97.3585V120H99.6226V117.736Z" fill="black"/>
<path d="M101.887 117.736H99.6226V120H101.887V117.736Z" fill="black"/>
<path d="M106.415 117.736H104.151V120H106.415V117.736Z" fill="black"/>
<path d="M110.943 117.736H108.679V120H110.943V117.736Z" fill="black"/>
<path d="M117.736 117.736H115.472V120H117.736V117.736Z" fill="black"/>
<path d="M0 0V15.8491H15.8491V0H0ZM13.4717 13.4717H2.37736V2.37736H13.4717V13.4717Z" fill="black"/>
<path d="M104.151 0V15.8491H120V0H104.151ZM117.623 13.4717H106.528V2.37736H117.623V13.4717Z" fill="black"/>
<path d="M0 104.151V120H15.8491V104.151H0ZM13.4717 117.623H2.37736V106.528H13.4717V117.623Z" fill="black"/>
<path d="M11.3208 4.5283H4.5283V11.3208H11.3208V4.5283Z" fill="black"/>
<path d="M115.472 4.5283H108.679V11.3208H115.472V4.5283Z" fill="black"/>
<path d="M11.3208 108.679H4.5283V115.472H11.3208V108.679Z" fill="black"/>
</svg>
